<?xml version="1.0" encoding="UTF-8"?>
<!DOCTYPE svg PUBLIC "-//W3C//DTD SVG 1.1//EN" "http://www.w3.org/Graphics/SVG/1.1/DTD/svg11.dtd">
<!-- Creator: CorelDRAW X7 -->
<svg xmlns="http://www.w3.org/2000/svg" xml:space="preserve" width="8800" height="1900" version="1.1" style="shape-rendering:geometricPrecision; text-rendering:geometricPrecision; image-rendering:optimizeQuality; fill-rule:evenodd; clip-rule:evenodd"
viewBox="0 4350 8800 1900"
 xmlns:xlink="http://www.w3.org/1999/xlink">
 <defs>
  <style type="text/css">
   <![CDATA[
    .fil3 {fill:#00ADEE;fill-rule:nonzero}
    .fil4 {fill:#204253;fill-rule:nonzero}
    .fil0 {fill:#37B3A1;fill-rule:nonzero}
    .fil1 {fill:#92DA22;fill-rule:nonzero}
    .fil2 {fill:white;fill-rule:nonzero}
   ]]>
  </style>
 </defs>
 <g id="Layer_x0020_1">
  <metadata id="CorelCorpID_0Corel-Layer"/>
  <g id="_1112263904">
   <g>
    <path class="fil0" d="M1293 5230c0,451 -365,816 -816,816 -451,0 -816,-365 -816,-816 0,-450 365,-816 816,-816 451,0 816,366 816,816z"/>
    <path class="fil1" d="M1187 5225c0,389 -315,705 -705,705 -389,0 -705,-316 -705,-705 0,-389 316,-705 705,-705 390,0 705,316 705,705z"/>
    <g>
     <path class="fil2" d="M1152 5139c0,322 -262,584 -584,584 -322,0 -583,-262 -583,-584 0,-322 261,-583 583,-583 322,0 584,261 584,583z"/>
     <g>
      <path class="fil3" d="M1015 5201l-894 0c-15,0 -29,10 -29,22 0,12 14,22 29,22l894 0c15,0 29,-10 29,-22 0,-12 -14,-22 -29,-22z"/>
      <path class="fil3" d="M1015 5033l-894 0c-15,0 -29,10 -29,22 0,12 14,22 29,22l894 0c15,0 29,-10 29,-22 0,-12 -14,-22 -29,-22z"/>
      <path class="fil3" d="M896 4867l-656 0c-15,0 -28,10 -28,22 0,12 13,22 28,22l656 0c15,0 28,-10 28,-22 0,-12 -13,-22 -28,-22z"/>
      <path class="fil3" d="M776 4702l-416 0c-15,0 -28,10 -28,22 0,12 13,22 28,22l416 0c15,0 28,-10 28,-22 0,-12 -13,-22 -28,-22z"/>
      <path class="fil3" d="M240 5412l656 0c15,0 28,-11 28,-23 0,-11 -13,-22 -28,-22l-656 0c-15,0 -28,11 -28,22 0,12 13,23 28,23z"/>
      <path class="fil3" d="M360 5576l416 0c15,0 28,-10 28,-22 0,-12 -13,-22 -28,-22l-416 0c-15,0 -28,10 -28,22 0,12 13,22 28,22z"/>
     </g>
    </g>
   </g>
  </g>
  <g id="_1112277056">
   <path class="fil4" d="M2151 5621l-55 -168c-1,-2 -2,-4 -5,-4l-400 0c-2,0 -4,2 -5,4l-53 168c-3,9 -9,13 -17,13l-41 0c-5,0 -9,-2 -12,-5 -2,-3 -3,-7 -1,-13l284 -866c3,-9 9,-13 17,-13l55 0c9,0 14,4 17,13l286 866c0,2 1,4 1,6 0,8 -5,12 -14,12l-40 0c-8,0 -14,-4 -17,-13l0 0zm-444 -230l0 0c2,1 3,2 5,2l359 0c1,0 3,-1 4,-2 1,-1 2,-3 1,-4l-182 -562c-1,-1 -2,-2 -4,-2 -2,0 -3,1 -4,2l-179 562c-1,1 -1,3 0,4l0 0z"/>
   <path class="fil4" d="M2657 4993c3,-3 7,-5 11,-5l37 0c4,0 8,2 11,5 3,3 4,6 4,10l0 617c0,96 -29,166 -86,210 -58,43 -139,63 -244,59 -11,-1 -16,-7 -16,-17l2 -32c0,-10 5,-15 15,-14 91,3 157,-13 199,-47 41,-33 62,-87 62,-161l0 -64c0,-2 0,-4 -2,-4 -1,0 -2,0 -4,2 -38,59 -97,88 -176,88 -55,0 -104,-15 -146,-45 -41,-31 -69,-72 -83,-125 -9,-35 -14,-88 -14,-158 0,-75 5,-130 15,-165 14,-50 41,-91 81,-122 40,-32 89,-47 145,-47 78,0 138,29 178,87 1,2 2,2 4,1 2,-1 2,-2 2,-4l0 -59c0,-4 2,-7 5,-10l0 0zm-6 405l0 0c1,-19 1,-48 1,-87 0,-39 0,-68 -1,-87 -1,-19 -2,-36 -5,-50 -7,-39 -25,-72 -54,-98 -30,-25 -67,-38 -111,-38 -45,0 -82,13 -112,38 -31,26 -51,59 -63,98 -7,25 -11,71 -11,136 0,63 4,108 11,136 10,39 30,71 61,97 32,26 69,38 114,38 46,0 83,-12 112,-38 28,-26 46,-58 53,-97 3,-13 4,-29 5,-48z"/>
   <path class="fil4" d="M3148 5556c30,-18 52,-43 67,-76 5,-8 12,-11 20,-8l23 9c11,5 14,11 9,21 -18,43 -48,78 -88,104 -40,25 -88,38 -143,38 -59,0 -109,-14 -150,-43 -40,-30 -69,-69 -85,-120 -12,-39 -18,-96 -18,-171 0,-42 1,-74 2,-95 1,-21 4,-41 8,-59 14,-54 42,-97 84,-129 43,-33 94,-49 156,-49 68,0 123,18 165,54 42,36 69,85 80,147 3,17 5,35 7,53 1,19 2,47 2,84 0,11 -5,17 -16,17l-416 0c-4,0 -5,1 -5,5 0,54 2,90 6,110 10,41 30,74 63,99 32,26 73,38 122,38 41,-1 77,-10 107,-29l0 0zm-298 -283l0 0c0,3 1,5 5,5l357 0c4,0 5,-2 5,-5 0,-44 -2,-76 -6,-98 -9,-41 -30,-74 -61,-99 -32,-25 -71,-38 -117,-38 -46,0 -85,12 -115,37 -31,24 -51,56 -59,96 -5,17 -8,50 -9,102l0 0z"/>
   <path class="fil4" d="M3770 5039c40,41 60,93 60,159l0 420c0,5 -2,8 -5,11 -3,3 -6,5 -10,5l-38 0c-4,0 -8,-2 -11,-5 -3,-3 -4,-6 -4,-11l0 -407c0,-50 -15,-92 -46,-124 -31,-32 -71,-48 -119,-48 -52,0 -94,16 -126,47 -31,31 -47,72 -47,122l0 410c0,5 -2,8 -5,11 -3,3 -6,5 -11,5l-37 0c-4,0 -8,-2 -11,-5 -3,-3 -4,-6 -4,-11l0 -615c0,-4 1,-7 4,-10 3,-3 7,-5 11,-5l37 0c5,0 8,2 11,5 3,3 5,6 5,10l0 61c0,2 0,4 2,4 1,1 2,0 3,-2 19,-28 44,-49 75,-64 31,-15 67,-23 107,-23 66,0 119,20 159,60l0 0z"/>
   <path class="fil4" d="M3906 5629c-3,-3 -4,-6 -4,-11l0 -37c0,-7 2,-13 6,-19l381 -505c1,-1 2,-3 1,-4 -1,-1 -2,-2 -4,-2l-364 0c-4,0 -8,-2 -11,-5 -3,-3 -4,-6 -4,-11l0 -32c0,-4 1,-7 4,-10 3,-3 7,-5 11,-5l436 0c4,0 8,2 11,5 3,3 4,6 4,10l0 38c0,6 -2,13 -6,19l-385 505c-1,1 -2,3 -1,4 1,1 2,2 4,2l372 0c4,0 7,2 10,5 3,3 5,6 5,10l0 32c0,5 -2,8 -5,11 -3,3 -6,5 -10,5l-440 0c-4,0 -8,-2 -11,-5z"/>
   <path class="fil4" d="M4432 4843c-11,-11 -17,-24 -17,-41 0,-16 6,-29 17,-39 11,-11 25,-16 42,-16 17,0 32,5 43,16 11,10 16,23 16,39 0,17 -5,30 -16,41 -11,10 -26,16 -43,16 -17,0 -31,-6 -42,-16zm13 786l0 0c-2,-3 -4,-6 -4,-11l0 -615c0,-4 2,-7 4,-10 3,-3 7,-5 11,-5l38 0c4,0 7,2 10,5 3,3 5,6 5,10l0 615c0,5 -2,8 -5,11 -3,3 -6,5 -10,5l-38 0c-4,0 -8,-2 -11,-5z"/>
   <path class="fil4" d="M4998 5036c40,39 59,91 59,157l0 425c0,5 -1,8 -4,11 -3,3 -7,5 -11,5l-37 0c-5,0 -8,-2 -11,-5 -3,-3 -5,-6 -5,-11l0 -55c0,-1 0,-3 -2,-3 -1,-1 -2,-1 -4,1 -22,27 -52,48 -88,62 -37,14 -76,21 -118,21 -60,0 -110,-15 -150,-44 -40,-30 -60,-75 -60,-138 0,-63 23,-113 70,-150 47,-36 111,-55 193,-55l154 0c4,0 5,-2 5,-5l0 -58c0,-48 -13,-87 -39,-114 -27,-28 -68,-42 -125,-42 -43,0 -79,9 -107,26 -28,18 -46,42 -53,71 -2,11 -8,15 -18,13l-39 -5c-12,-2 -16,-6 -15,-14 9,-45 34,-82 76,-109 42,-28 94,-42 158,-42 75,0 132,19 171,58l0 0zm-68 509l0 0c40,-26 59,-63 59,-110l0 -116c0,-4 -1,-5 -5,-5l-146 0c-61,0 -111,12 -148,38 -37,26 -56,61 -56,106 0,42 15,74 44,95 29,21 66,32 111,32 54,0 101,-13 141,-40l0 0z"/>
   <path class="fil4" d="M5275 5610c-46,-24 -82,-56 -107,-98 -25,-42 -38,-90 -38,-145l0 -52c0,-6 2,-11 5,-14 4,-4 9,-5 15,-5l84 0c6,0 11,1 14,5 4,3 5,8 5,14l0 52c0,52 17,93 50,124 34,31 78,47 132,47 56,0 100,-16 134,-47 33,-31 49,-72 49,-124l0 -611c0,-6 2,-10 6,-14 3,-3 8,-5 14,-5l83 0c6,0 11,2 14,5 4,4 5,8 5,14l0 611c0,55 -12,103 -38,145 -25,42 -60,74 -107,98 -46,23 -99,34 -160,34 -60,0 -114,-11 -160,-34z"/>
   <path class="fil4" d="M6210 4999c39,18 69,44 90,77 20,33 31,70 31,112l0 427c0,6 -2,10 -5,14 -4,3 -8,5 -14,5l-85 0c-6,0 -11,-2 -14,-5 -3,-4 -5,-8 -5,-14l0 -36c0,-3 -1,-5 -3,-5 -1,-1 -3,-1 -5,1 -24,22 -52,39 -85,51 -33,12 -69,18 -107,18 -62,0 -114,-16 -154,-48 -40,-32 -60,-80 -60,-145 0,-67 23,-119 70,-157 46,-38 112,-57 195,-57l142 0c5,0 7,-2 7,-7l0 -33c0,-38 -11,-67 -33,-88 -22,-21 -55,-31 -99,-31 -35,0 -64,6 -85,19 -22,13 -36,31 -43,54 -4,11 -11,16 -22,15l-92 -11c-6,-1 -11,-3 -14,-6 -4,-3 -5,-7 -4,-11 8,-49 35,-89 82,-120 48,-31 106,-47 175,-47 52,0 98,10 137,28l0 0zm-53 505l0 0c34,-23 51,-54 51,-91l0 -74c0,-4 -2,-6 -7,-6l-119 0c-50,0 -90,10 -120,29 -30,20 -45,47 -45,82 0,32 11,56 34,72 23,16 52,24 88,24 45,0 85,-12 118,-36z"/>
   <path class="fil4" d="M6555 5618l-205 -615c-1,-1 -1,-4 -1,-7 0,-10 5,-14 16,-14l95 0c5,0 10,1 14,4 5,3 7,7 8,12l140 459c1,3 2,5 4,5 1,-1 3,-3 3,-6l139 -458c1,-5 3,-9 8,-12 4,-3 8,-4 14,-4l94 1c7,0 12,2 14,6 3,4 3,9 2,16l-204 613c-3,11 -11,16 -22,16l-97 0c-11,0 -18,-5 -22,-16l0 0z"/>
   <path class="fil4" d="M7351 5458c4,-7 9,-11 14,-11 4,0 8,1 11,4l53 32c7,4 10,9 10,16l-2 11c-23,41 -56,74 -98,98 -43,24 -92,36 -148,36 -61,0 -112,-13 -154,-40 -42,-27 -74,-66 -95,-116 -21,-52 -32,-113 -32,-183 0,-63 5,-110 14,-143 15,-59 46,-105 92,-139 46,-34 102,-52 168,-52 81,0 143,22 186,64 43,42 70,103 83,184 5,31 8,70 9,115 0,13 -6,19 -19,19l-405 0c-4,0 -6,2 -6,7 1,32 4,55 9,69 9,34 28,61 56,81 28,19 63,29 105,29 69,-1 119,-28 149,-81l0 0zm-258 -353l0 0c-24,18 -40,42 -48,74 -6,19 -10,43 -12,72 0,4 2,6 6,6l291 0c5,0 7,-2 7,-6 -2,-28 -5,-49 -8,-63 -9,-33 -25,-60 -51,-80 -25,-20 -56,-30 -94,-30 -37,0 -68,9 -91,27l0 0z"/>
   <path class="fil4" d="M7943 4742c3,-3 8,-5 14,-5l84 0c6,0 11,2 14,5 4,4 6,8 6,14l0 859c0,6 -2,10 -6,14 -3,3 -8,5 -14,5l-84 0c-6,0 -11,-2 -14,-5 -4,-4 -5,-8 -5,-14l0 -34c0,-2 -1,-4 -3,-5 -2,-1 -3,0 -5,1 -19,22 -41,38 -66,50 -25,11 -53,17 -83,17 -61,0 -112,-15 -153,-45 -40,-31 -70,-74 -89,-129 -15,-43 -23,-98 -23,-164 0,-62 6,-114 19,-155 18,-57 48,-101 89,-132 42,-32 94,-48 157,-48 30,0 58,6 83,17 25,11 47,27 66,49 2,2 3,2 5,2 2,-1 3,-2 3,-5l0 -278c0,-6 1,-10 5,-14l0 0zm-7 565l0 0c0,-70 -11,-125 -33,-164 -25,-43 -61,-65 -109,-65 -49,0 -87,20 -114,61 -27,43 -41,99 -41,169 0,66 11,119 32,159 25,47 66,71 123,71 49,0 86,-23 112,-69 20,-38 30,-92 30,-162z"/>
  </g>
 </g>
</svg>
