<?xml version="1.0" encoding="UTF-8"?>
<svg version="1.1" xmlns="http://www.w3.org/2000/svg" width="4943" height="953">
<path d="M0 0 C96.53038048 -1.74123077 193.49197384 26.14212234 321.79003906 123.91259766 C326.86921002 128.83087978 331.87852217 133.81968755 336.88476562 138.81201172 C337.43096558 139.35553284 337.97716553 139.89905396 338.53991699 140.45904541 C344.58187295 146.47853635 350.50282534 152.54170566 356.00976562 159.06201172 C356.89820115 160.08361745 357.78747621 161.10449391 358.67773438 162.12451172 C414.85639057 227.62272794 451.3468098 308.75943656 466.25976562 393.49951172 C466.37878235 394.15950165 466.49779907 394.81949158 466.62042236 395.4994812 C471.15181294 420.89469435 472.51772206 446.27812709 472.40087891 472.01171875 C472.38378817 475.80270786 472.39397559 479.5930646 472.41120148 483.38403225 C472.50635294 508.12908496 471.06011554 532.57887181 466.75976562 556.99951172 C466.5499707 558.21509766 466.34017578 559.43068359 466.12402344 560.68310547 C453.63043024 631.06548328 426.82211017 698.86983124 385.00976562 757.06201172 C384.43484375 757.86606445 383.85992188 758.67011719 383.26757812 759.49853516 C376.68700583 768.66895059 369.93977241 777.60921349 362.53710938 786.13232422 C360.04646875 789.01946559 357.64794322 791.96487839 355.25976562 794.93701172 C352.23680606 798.65385346 349.10537306 802.08742835 345.66210938 805.41357422 C343.98963547 807.08209429 342.4728007 808.82126078 340.94726562 810.62451172 C333.63701075 819.09249926 325.52814707 827.13560461 316.99023438 834.36279297 C313.61263165 837.26073613 310.37440637 840.31368384 307.11132812 843.33935547 C302.90896891 847.11152332 298.44195407 850.56657808 294.00976562 854.06201172 C293.21731445 854.68857666 292.42486328 855.3151416 291.60839844 855.96069336 C273.07453541 870.52821768 253.55425962 883.50546313 233.00976562 895.06201172 C232.14367676 895.55378906 231.27758789 896.04556641 230.38525391 896.55224609 C147.17481308 943.58863643 48.74789362 962.19066672 -45.99023438 950.06201172 C-47.69928955 949.84520752 -47.69928955 949.84520752 -49.44287109 949.62402344 C-75.8615983 946.15303396 -101.62961389 940.19392941 -126.99023438 932.06201172 C-128.05419434 931.72331055 -129.1181543 931.38460937 -130.21435547 931.03564453 C-184.02246352 913.71109545 -234.8161552 885.58389138 -277.99023438 849.06201172 C-278.98796875 848.23701172 -279.98570313 847.41201172 -281.01367188 846.56201172 C-293.26595324 836.3936686 -304.71283311 825.41852548 -315.99023438 814.18701172 C-316.77930176 813.40261719 -317.56836914 812.61822266 -318.38134766 811.81005859 C-323.12313005 807.055169 -327.62711014 802.16494118 -331.99023438 797.06201172 C-332.97516509 795.93245423 -333.96081279 794.80352142 -334.94726562 793.67529297 C-341.5909779 786.01766702 -347.9511527 778.20694032 -353.99023438 770.06201172 C-354.49167969 769.38654297 -354.993125 768.71107422 -355.50976562 768.01513672 C-363.43237089 757.29745173 -370.93235998 746.36791181 -377.99023438 735.06201172 C-378.37099121 734.45357422 -378.75174805 733.84513672 -379.14404297 733.21826172 C-413.64206638 677.75383271 -436.15838465 615.57538241 -445.99023438 551.06201172 C-446.21767334 549.57386963 -446.21767334 549.57386963 -446.44970703 548.05566406 C-447.44074034 541.40539678 -448.25832185 534.74534591 -448.99023438 528.06201172 C-449.09464844 527.16691895 -449.1990625 526.27182617 -449.30664062 525.34960938 C-458.89642528 440.30096538 -442.98298837 351.7948973 -407.99023438 274.06201172 C-407.57950684 273.14419922 -407.1687793 272.22638672 -406.74560547 271.28076172 C-400.33043931 257.06043367 -392.85385679 243.5260217 -384.99023438 230.06201172 C-384.4767041 229.17562012 -383.96317383 228.28922852 -383.43408203 227.37597656 C-370.57490324 205.22708546 -355.461476 184.66391742 -338.99023438 165.06201172 C-338.56484375 164.5517041 -338.13945312 164.04139648 -337.70117188 163.515625 C-324.89930102 148.18538465 -311.31884872 132.93075629 -296.13085938 119.92529297 C-293.65836951 117.77314395 -291.2675208 115.54220453 -288.86523438 113.31201172 C-283.11385201 108.07414564 -277.08136545 103.2786041 -270.91308594 98.54345703 C-268.91717554 97.00572413 -266.93376997 95.45279822 -264.95117188 93.89794922 C-189.8296938 35.29634233 -95.19395896 1.97413991 0 0 Z " fill="#D7E98D" transform="translate(4470.990234375,-0.06201171875)"/>
<path d="M0 0 C96.53038048 -1.74123077 193.49197384 26.14212234 321.79003906 123.91259766 C326.86921002 128.83087978 331.87852217 133.81968755 336.88476562 138.81201172 C337.43096558 139.35553284 337.97716553 139.89905396 338.53991699 140.45904541 C344.58187295 146.47853635 350.50282534 152.54170566 356.00976562 159.06201172 C356.89820115 160.08361745 357.78747621 161.10449391 358.67773438 162.12451172 C414.85639057 227.62272794 451.3468098 308.75943656 466.25976562 393.49951172 C466.37878235 394.15950165 466.49779907 394.81949158 466.62042236 395.4994812 C471.15181294 420.89469435 472.51772206 446.27812709 472.40087891 472.01171875 C472.38378817 475.80270786 472.39397559 479.5930646 472.41120148 483.38403225 C472.50635294 508.12908496 471.06011554 532.57887181 466.75976562 556.99951172 C466.5499707 558.21509766 466.34017578 559.43068359 466.12402344 560.68310547 C453.63043024 631.06548328 426.82211017 698.86983124 385.00976562 757.06201172 C384.43484375 757.86606445 383.85992188 758.67011719 383.26757812 759.49853516 C376.68700583 768.66895059 369.93977241 777.60921349 362.53710938 786.13232422 C360.04646875 789.01946559 357.64794322 791.96487839 355.25976562 794.93701172 C352.23680606 798.65385346 349.10537306 802.08742835 345.66210938 805.41357422 C343.98963547 807.08209429 342.4728007 808.82126078 340.94726562 810.62451172 C333.63701075 819.09249926 325.52814707 827.13560461 316.99023438 834.36279297 C313.61263165 837.26073613 310.37440637 840.31368384 307.11132812 843.33935547 C302.90896891 847.11152332 298.44195407 850.56657808 294.00976562 854.06201172 C293.21731445 854.68857666 292.42486328 855.3151416 291.60839844 855.96069336 C273.07453541 870.52821768 253.55425962 883.50546313 233.00976562 895.06201172 C232.14367676 895.55378906 231.27758789 896.04556641 230.38525391 896.55224609 C147.17481308 943.58863643 48.74789362 962.19066672 -45.99023438 950.06201172 C-47.69928955 949.84520752 -47.69928955 949.84520752 -49.44287109 949.62402344 C-75.8615983 946.15303396 -101.62961389 940.19392941 -126.99023438 932.06201172 C-128.05419434 931.72331055 -129.1181543 931.38460937 -130.21435547 931.03564453 C-184.02246352 913.71109545 -234.8161552 885.58389138 -277.99023438 849.06201172 C-278.98796875 848.23701172 -279.98570313 847.41201172 -281.01367188 846.56201172 C-293.26595324 836.3936686 -304.71283311 825.41852548 -315.99023438 814.18701172 C-316.77930176 813.40261719 -317.56836914 812.61822266 -318.38134766 811.81005859 C-323.12313005 807.055169 -327.62711014 802.16494118 -331.99023438 797.06201172 C-332.97516509 795.93245423 -333.96081279 794.80352142 -334.94726562 793.67529297 C-341.5909779 786.01766702 -347.9511527 778.20694032 -353.99023438 770.06201172 C-354.49167969 769.38654297 -354.993125 768.71107422 -355.50976562 768.01513672 C-363.43237089 757.29745173 -370.93235998 746.36791181 -377.99023438 735.06201172 C-378.37099121 734.45357422 -378.75174805 733.84513672 -379.14404297 733.21826172 C-413.64206638 677.75383271 -436.15838465 615.57538241 -445.99023438 551.06201172 C-446.21767334 549.57386963 -446.21767334 549.57386963 -446.44970703 548.05566406 C-447.44074034 541.40539678 -448.25832185 534.74534591 -448.99023438 528.06201172 C-449.09464844 527.16691895 -449.1990625 526.27182617 -449.30664062 525.34960938 C-458.89642528 440.30096538 -442.98298837 351.7948973 -407.99023438 274.06201172 C-407.57950684 273.14419922 -407.1687793 272.22638672 -406.74560547 271.28076172 C-400.33043931 257.06043367 -392.85385679 243.5260217 -384.99023438 230.06201172 C-384.4767041 229.17562012 -383.96317383 228.28922852 -383.43408203 227.37597656 C-370.57490324 205.22708546 -355.461476 184.66391742 -338.99023438 165.06201172 C-338.56484375 164.5517041 -338.13945312 164.04139648 -337.70117188 163.515625 C-324.89930102 148.18538465 -311.31884872 132.93075629 -296.13085938 119.92529297 C-293.65836951 117.77314395 -291.2675208 115.54220453 -288.86523438 113.31201172 C-283.11385201 108.07414564 -277.08136545 103.2786041 -270.91308594 98.54345703 C-268.91717554 97.00572413 -266.93376997 95.45279822 -264.95117188 93.89794922 C-189.8296938 35.29634233 -95.19395896 1.97413991 0 0 Z M-194.99023438 184.06201172 C-195.54195312 184.5632959 -196.09367187 185.06458008 -196.66210938 185.58105469 C-209.78768683 197.51177659 -222.03989362 210.08328002 -232.99023438 224.06201172 C-233.7765625 225.05330078 -234.56289063 226.04458984 -235.37304688 227.06591797 C-297.14256444 305.57967001 -324.03910363 404.08620034 -320.09570312 535.07373047 C-314.13935759 580.18806053 -303.50648061 625.23234886 -284.14746094 666.5859375 C-283.01719685 669.00432113 -281.91893632 671.43508801 -280.82617188 673.87060547 C-259.8954824 719.96397687 -227.80113695 764.2113549 -188.99023438 797.06201172 C-187.62898438 798.25697266 -187.62898438 798.25697266 -186.24023438 799.47607422 C-158.93842876 823.28853746 -126.80134635 842.15811988 -92.99023438 855.06201172 C-92.15766113 855.38862793 -91.32508789 855.71524414 -90.46728516 856.05175781 C-20.74714196 883.15004188 59.94759519 879.02478631 128.08398438 849.46044922 C152.78999916 838.49019744 175.77000819 824.83190975 197.00976562 808.06201172 C197.9146875 807.34916016 198.81960938 806.63630859 199.75195312 805.90185547 C206.23988668 800.69129127 212.38458541 795.14816223 218.47167969 789.48242188 C220.03252261 788.04099583 221.60823673 786.61775841 223.18945312 785.19873047 C228.13433565 780.75078643 232.91675635 776.29832522 237.19335938 771.18701172 C239.42093707 768.58098534 241.78100999 766.117122 244.13476562 763.62451172 C251.00517967 756.21827682 257.01847727 748.18377956 263.00976562 740.06201172 C263.50589355 739.3960498 264.00202148 738.73008789 264.51318359 738.04394531 C289.2679942 704.6708545 307.28367699 667.12421945 321.00976562 628.06201172 C321.37489258 627.02947266 321.74001953 625.99693359 322.11621094 624.93310547 C331.14542957 599.08769665 336.51718808 572.18228278 340.00976562 545.06201172 C340.17680496 543.76556229 340.3438443 542.46911285 340.51594543 541.13337708 C341.82591553 530.47583811 342.33555954 519.98474357 342.34570312 509.25341797 C342.35217133 507.59179077 342.3589022 505.93016458 342.36587524 504.26853943 C342.37773826 500.8037555 342.38156837 497.33907032 342.38037109 493.87426758 C342.38021002 490.40465105 342.39388102 486.93557088 342.42138672 483.46606445 C342.89479675 422.78829488 331.56666133 363.9880428 306.15185547 308.55615234 C305.1042776 306.26841068 304.07956345 303.97194974 303.06054688 301.67138672 C291.04021408 274.89997397 274.72522433 248.70580049 256.00976562 226.06201172 C255.57116211 225.5301123 255.13255859 224.99821289 254.68066406 224.45019531 C245.62834982 213.50961007 236.15029964 203.01557712 226.10839844 192.9753418 C224.63770153 191.502452 223.17523028 190.02170906 221.71289062 188.54052734 C215.48150347 182.27171092 208.95596412 176.53591099 202.00976562 171.06201172 C201.25872559 170.45703857 200.50768555 169.85206543 199.73388672 169.22875977 C119.48790578 104.62332341 10.31694799 82.67154595 -194.99023438 184.06201172 Z " fill="#7DD856" transform="translate(4470.990234375,-0.06201171875)"/>
<path d="M0 0 C1.76341782 -0.00322134 3.52683539 -0.00658604 5.29025269 -0.01008606 C8.9767112 -0.01604927 12.66314638 -0.01792894 16.34960938 -0.01733398 C21.02911636 -0.01723271 25.70847046 -0.03086203 30.38794136 -0.04810619 C34.02923239 -0.05933195 37.67048774 -0.06124995 41.31179428 -0.06072426 C43.03463134 -0.0618894 44.75746979 -0.06622665 46.48028946 -0.07405663 C65.23804757 -0.15131035 86.43153155 0.03196389 101.8671875 12.16796875 C108.61180994 19.05548574 110.9432769 27.80510658 113.12182617 36.94433594 C113.32809631 37.79175858 113.53436646 38.63918121 113.74688721 39.51228333 C114.43110876 42.32866461 115.10815417 45.1467191 115.78515625 47.96484375 C116.27467687 49.98661143 116.76462194 52.00827639 117.25495911 54.02984619 C118.58277752 59.50997368 119.90423234 64.99161793 121.2244873 70.47357178 C122.34160846 75.10836801 123.46255992 79.74223421 124.58357048 84.376091 C133.13606692 119.72963956 141.62206936 155.09922328 150.09614849 190.47163773 C157.72118638 222.2973491 165.42169075 254.10428212 173.15407181 285.90406799 C181.34469184 319.58966305 189.46968941 353.29037943 197.54378128 387.00408554 C205.45459915 420.03420427 213.43761395 453.04621177 221.46915436 486.04718018 C229.13940139 517.5649862 236.80714365 549.08329544 244.37877274 580.62496567 C244.9235122 582.89226609 245.46948011 585.15926721 246.01583862 587.42617798 C247.00269668 591.5214816 247.98419703 595.61804832 248.96484375 599.71484375 C249.39091415 601.48002602 249.39091415 601.48002602 249.82559204 603.28086853 C251.74893132 611.34985726 253.05441002 618.99064692 253.1171875 627.29296875 C253.148125 628.32744141 253.148125 628.32744141 253.1796875 629.3828125 C253.21399025 633.86789693 252.58579098 636.59457978 249.8671875 640.16796875 C238.62582054 651.14790857 222.18837407 650.4791642 207.4375 650.43359375 C205.87393127 650.43494559 204.31036296 650.4368904 202.74679565 650.43939209 C199.4875687 650.44232074 196.22845226 650.43812037 192.96923828 650.42871094 C188.83213015 650.41733689 184.69528222 650.42387737 180.55818367 650.43585587 C177.33387361 650.44315234 174.10962318 650.4407509 170.88531113 650.43560028 C169.36178429 650.4342842 167.83825169 650.43583813 166.3147316 650.44055939 C150.31514692 650.47926835 131.96322524 650.46587826 119.48828125 639.14453125 C114.91055558 633.56301513 113.7565317 627.08582681 112.32348633 620.20556641 C112.08523227 619.0946784 111.84697821 617.9837904 111.60150433 616.83923912 C110.83474776 613.25508698 110.07926851 609.66866573 109.32421875 606.08203125 C108.85145169 603.86401779 108.37794507 601.64616183 107.90368652 599.4284668 C106.15339196 591.21853954 104.41740298 583.0055677 102.6796875 574.79296875 C98.7815625 556.43671875 94.8834375 538.08046875 90.8671875 519.16796875 C22.0621875 518.67296875 22.0621875 518.67296875 -48.1328125 518.16796875 C-48.4628125 521.13796875 -48.7928125 524.10796875 -49.1328125 527.16796875 C-49.42300431 528.80798413 -49.7409696 530.44375498 -50.10604858 532.06874084 C-50.29661331 532.92779526 -50.48717804 533.78684967 -50.68351746 534.67193604 C-50.89027603 535.58078552 -51.09703461 536.48963501 -51.31005859 537.42602539 C-51.52971786 538.40935349 -51.74937714 539.39268158 -51.97569275 540.4058075 C-52.6976056 543.63104486 -53.42663773 546.85462138 -54.15625 550.078125 C-54.6635625 552.33290289 -55.17060784 554.58774091 -55.67739868 556.84263611 C-56.73840638 561.55801705 -57.80301634 566.27256662 -58.87011719 570.98657227 C-60.2346308 577.0160149 -61.5895721 583.04756158 -62.94174767 589.07978153 C-63.98603726 593.73306153 -65.03569621 598.38511786 -66.08693314 603.03683281 C-66.58859202 605.25990648 -67.08852857 607.48336957 -67.58668137 609.70723152 C-68.28455829 612.81919372 -68.98973525 615.92941583 -69.69677734 619.03930664 C-70.00084251 620.40561722 -70.00084251 620.40561722 -70.31105042 621.79953003 C-74.20856236 638.80824615 -74.20856236 638.80824615 -81.05078125 643.4765625 C-93.37667706 650.43439648 -108.05977598 650.63163208 -121.84765625 650.56640625 C-123.3983219 650.56843693 -124.9489866 650.57135651 -126.49964905 650.57510376 C-129.72243497 650.5794819 -132.94496847 650.57324505 -136.16772461 650.55908203 C-140.24624507 650.54200731 -144.32417212 650.55184939 -148.40267086 650.56979942 C-151.59709435 650.58077339 -154.79138311 650.57712933 -157.98581123 650.56941605 C-159.48732134 650.5674506 -160.98884474 650.56974042 -162.49033928 650.57685471 C-176.8358211 650.62994137 -193.69644981 650.50393631 -205.0078125 640.66796875 C-210.1613278 634.60500957 -209.75655046 628.8783989 -209.1328125 621.16796875 C-208.20694391 615.2365449 -206.66410924 609.42917353 -205.19921875 603.61328125 C-204.77368904 601.87641384 -204.34953016 600.1392101 -203.92662048 598.40170288 C-203.01362596 594.66298528 -202.09133967 590.92673225 -201.16162109 587.19213867 C-199.66320815 581.17272462 -198.18565766 575.14830267 -196.7109375 569.12304688 C-194.87674713 561.63513182 -193.03748576 554.14849645 -191.19184685 546.66339493 C-187.72366321 532.59676535 -184.29199771 518.52149705 -180.87890625 504.44140625 C-180.62195984 503.38151867 -180.36501343 502.32163109 -180.10028076 501.2296257 C-179.0603992 496.93972228 -178.02072716 492.64976818 -176.98142624 488.35972404 C-175.14247356 480.76902984 -173.30081128 473.1789971 -171.45751953 465.58935547 C-164.64453359 437.53638588 -157.85000118 409.47900294 -151.0703125 381.41796875 C-143.43877853 349.83115909 -135.79184767 318.24812146 -128.1328125 286.66796875 C-120.65972944 255.85395226 -113.19550283 225.03782079 -105.74699783 194.21785355 C-104.62626996 189.58067761 -103.50539085 184.94353823 -102.38452148 180.30639648 C-101.93580585 178.44999705 -101.48709064 176.59359751 -101.03837585 174.73719788 C-100.81563177 173.81567492 -100.59288769 172.89415195 -100.36339378 171.94470406 C-99.45941025 168.20479847 -98.55542923 164.46489228 -97.65144825 160.72498608 C-97.19146923 158.82199122 -96.73148729 156.91899707 -96.27150249 155.01600361 C-95.05192219 149.97049996 -93.83238438 144.92498604 -92.61291504 139.87945557 C-89.73593024 127.97623364 -86.85815318 116.07320387 -83.97871113 104.1705761 C-82.72872294 99.00346126 -81.47908425 93.8362626 -80.23043823 88.66882324 C-79.75577252 86.70466763 -79.28109215 84.74051556 -78.80639648 82.77636719 C-78.57623054 81.82395205 -78.34606459 80.8715369 -78.10892391 79.8902607 C-76.37374084 72.71393446 -74.62768824 65.54028843 -72.87804508 58.36747551 C-71.76045702 53.77739101 -70.6604541 49.18372991 -69.58190632 44.58431721 C-69.11207758 42.58635289 -68.63625891 40.58992681 -68.15794373 38.59397888 C-67.60142876 36.26748189 -67.05528454 33.93846254 -66.52284241 31.6063385 C-64.11573889 21.665556 -59.81669453 13.89207105 -51.1328125 8.16796875 C-34.79251646 0.26946248 -17.76634842 0.00767962 0 0 Z M18.8671875 140.16796875 C18.65739258 141.79980103 18.65739258 141.79980103 18.44335938 143.46459961 C17.88987565 147.74065153 17.31846169 152.01418691 16.74316406 156.28735352 C16.50238477 158.09210379 16.26567445 159.89740447 16.03417969 161.70336914 C10.58850434 204.07602445 0.44910865 245.95285101 -8.17277575 287.77137297 C-9.47135591 294.07044022 -10.7677763 300.36995034 -12.06361866 306.66958129 C-24.89948487 369.0699044 -24.89948487 369.0699044 -30.02697754 393.06291199 C-30.17499817 393.75884901 -30.3230188 394.45478603 -30.4755249 395.17181206 C-30.85831154 396.97101743 -31.24331685 398.7697504 -31.62854004 400.56843567 C-32.19629109 403.05386993 -32.19629109 403.05386993 -32.1328125 405.16796875 C3.1771875 405.16796875 38.4871875 405.16796875 74.8671875 405.16796875 C74.14898121 397.38320852 74.14898121 397.38320852 72.86080933 389.81159973 C72.5631591 388.40532995 72.5631591 388.40532995 72.25949574 386.97065067 C72.0435057 385.97720363 71.82751566 384.98375658 71.60498047 383.96020508 C71.37504992 382.88147094 71.14511938 381.8027368 70.90822124 380.69131374 C70.14705977 377.1264251 69.37823614 373.56323523 68.609375 370 C68.06794676 367.47160123 67.52701787 364.94309548 66.98655701 362.41448975 C65.83934984 357.05028519 64.68843197 351.68688839 63.5350647 346.32400513 C61.88569995 338.65407007 60.24428545 330.98244958 58.60515463 323.31032169 C53.98495326 301.6854159 49.35565894 280.06246299 44.69613266 258.44599247 C42.84904677 249.87591643 41.00778374 241.30461726 39.1796875 232.73046875 C38.95556057 231.67931318 38.95556057 231.67931318 38.72690582 230.60692215 C33.9939403 208.37873678 29.83377967 186.10953242 26.52929688 163.62304688 C25.78722193 158.58546687 24.99279607 153.5564063 24.1953125 148.52734375 C23.99648468 147.27319672 23.99648468 147.27319672 23.79364014 145.99371338 C23.48535134 144.05171449 23.17635269 142.10982831 22.8671875 140.16796875 C21.5471875 140.16796875 20.2271875 140.16796875 18.8671875 140.16796875 Z " fill="#303335" transform="translate(209.1328125,125.83203125)"/>
<path d="M0 0 C96.53038048 -1.74123077 193.49197384 26.14212234 321.79003906 123.91259766 C326.86921002 128.83087978 331.87852217 133.81968755 336.88476562 138.81201172 C337.43096558 139.35553284 337.97716553 139.89905396 338.53991699 140.45904541 C344.58187295 146.47853635 350.50282534 152.54170566 356.00976562 159.06201172 C356.89820115 160.08361745 357.78747621 161.10449391 358.67773438 162.12451172 C414.85639057 227.62272794 451.3468098 308.75943656 466.25976562 393.49951172 C466.37878235 394.15950165 466.49779907 394.81949158 466.62042236 395.4994812 C471.15181294 420.89469435 472.51772206 446.27812709 472.40087891 472.01171875 C472.38378817 475.80270786 472.39397559 479.5930646 472.41120148 483.38403225 C472.50635294 508.12908496 471.06011554 532.57887181 466.75976562 556.99951172 C466.5499707 558.21509766 466.34017578 559.43068359 466.12402344 560.68310547 C453.63043024 631.06548328 426.82211017 698.86983124 385.00976562 757.06201172 C384.43484375 757.86606445 383.85992188 758.67011719 383.26757812 759.49853516 C376.68700583 768.66895059 369.93977241 777.60921349 362.53710938 786.13232422 C360.04646875 789.01946559 357.64794322 791.96487839 355.25976562 794.93701172 C352.23680606 798.65385346 349.10537306 802.08742835 345.66210938 805.41357422 C343.98963547 807.08209429 342.4728007 808.82126078 340.94726562 810.62451172 C333.63701075 819.09249926 325.52814707 827.13560461 316.99023438 834.36279297 C313.61263165 837.26073613 310.37440637 840.31368384 307.11132812 843.33935547 C302.90896891 847.11152332 298.44195407 850.56657808 294.00976562 854.06201172 C293.21731445 854.68857666 292.42486328 855.3151416 291.60839844 855.96069336 C273.07453541 870.52821768 253.55425962 883.50546313 233.00976562 895.06201172 C232.14367676 895.55378906 231.27758789 896.04556641 230.38525391 896.55224609 C147.17481308 943.58863643 48.74789362 962.19066672 -45.99023438 950.06201172 C-47.69928955 949.84520752 -47.69928955 949.84520752 -49.44287109 949.62402344 C-75.8615983 946.15303396 -101.62961389 940.19392941 -126.99023438 932.06201172 C-128.05419434 931.72331055 -129.1181543 931.38460937 -130.21435547 931.03564453 C-184.02246352 913.71109545 -234.8161552 885.58389138 -277.99023438 849.06201172 C-278.98796875 848.23701172 -279.98570313 847.41201172 -281.01367188 846.56201172 C-293.26595324 836.3936686 -304.71283311 825.41852548 -315.99023438 814.18701172 C-316.77930176 813.40261719 -317.56836914 812.61822266 -318.38134766 811.81005859 C-323.12313005 807.055169 -327.62711014 802.16494118 -331.99023438 797.06201172 C-332.97516509 795.93245423 -333.96081279 794.80352142 -334.94726562 793.67529297 C-341.5909779 786.01766702 -347.9511527 778.20694032 -353.99023438 770.06201172 C-354.49167969 769.38654297 -354.993125 768.71107422 -355.50976562 768.01513672 C-363.43237089 757.29745173 -370.93235998 746.36791181 -377.99023438 735.06201172 C-378.37099121 734.45357422 -378.75174805 733.84513672 -379.14404297 733.21826172 C-413.64206638 677.75383271 -436.15838465 615.57538241 -445.99023438 551.06201172 C-446.21767334 549.57386963 -446.21767334 549.57386963 -446.44970703 548.05566406 C-447.44074034 541.40539678 -448.25832185 534.74534591 -448.99023438 528.06201172 C-449.09464844 527.16691895 -449.1990625 526.27182617 -449.30664062 525.34960938 C-458.89642528 440.30096538 -442.98298837 351.7948973 -407.99023438 274.06201172 C-407.57950684 273.14419922 -407.1687793 272.22638672 -406.74560547 271.28076172 C-400.33043931 257.06043367 -392.85385679 243.5260217 -384.99023438 230.06201172 C-384.4767041 229.17562012 -383.96317383 228.28922852 -383.43408203 227.37597656 C-370.57490324 205.22708546 -355.461476 184.66391742 -338.99023438 165.06201172 C-338.56484375 164.5517041 -338.13945312 164.04139648 -337.70117188 163.515625 C-324.89930102 148.18538465 -311.31884872 132.93075629 -296.13085938 119.92529297 C-293.65836951 117.77314395 -291.2675208 115.54220453 -288.86523438 113.31201172 C-283.11385201 108.07414564 -277.08136545 103.2786041 -270.91308594 98.54345703 C-268.91717554 97.00572413 -266.93376997 95.45279822 -264.95117188 93.89794922 C-189.8296938 35.29634233 -95.19395896 1.97413991 0 0 Z M-75.99023438 51.06201172 C-77.26785645 51.36679443 -77.26785645 51.36679443 -78.57128906 51.67773438 C-103.37148156 57.63102547 -126.89855011 66.26992739 -149.99023438 77.06201172 C-151.29202637 77.66650146 -151.29202637 77.66650146 -152.62011719 78.28320312 C-185.72954298 93.80445755 -215.61648095 114.97048292 -242.99023438 139.06201172 C-243.92867187 139.88701172 -244.86710937 140.71201172 -245.83398438 141.56201172 C-258.5230833 152.96794333 -271.56757281 164.8915077 -281.94335938 178.47998047 C-283.812788 180.83817193 -285.76360081 183.05174028 -287.77929688 185.28466797 C-291.806103 189.78884546 -295.50657197 194.46896153 -299.11523438 199.31201172 C-299.75412598 200.16754639 -300.39301758 201.02308105 -301.05126953 201.90454102 C-338.12682128 252.02992122 -364.92553748 309.29415993 -378.99023438 370.06201172 C-379.23725098 371.1088916 -379.48426758 372.15577148 -379.73876953 373.234375 C-393.83146589 434.13017441 -396.71652046 503.90530544 -382.43847656 565.05761719 C-381.84307742 567.72005018 -381.37023066 570.39766153 -380.90087891 573.0847168 C-369.45946945 638.06646659 -338.8734237 701.95578384 -298.99023438 754.06201172 C-298.48331055 754.7273291 -297.97638672 755.39264648 -297.45410156 756.078125 C-292.30675478 762.81202957 -287.01110714 769.35437388 -281.25585938 775.58544922 C-279.36827682 777.64877222 -277.52406504 779.73711972 -275.68945312 781.84716797 C-272.05377607 786.01278458 -268.32666005 790.08409908 -264.55273438 794.12451172 C-263.93591797 794.79289063 -263.31910156 795.46126953 -262.68359375 796.14990234 C-258.93906973 800.15938748 -255.05110483 803.85604294 -250.88549805 807.42504883 C-248.65576678 809.35089555 -246.51773001 811.35889384 -244.37841797 813.38378906 C-237.26616736 820.09670711 -229.78911113 826.1700824 -221.99023438 832.06201172 C-221.27593262 832.60615723 -220.56163086 833.15030273 -219.82568359 833.7109375 C-208.27040457 842.49076885 -196.43058963 850.58884867 -183.99023438 858.06201172 C-183.17361328 858.55411133 -182.35699219 859.04621094 -181.515625 859.55322266 C-142.42720483 882.93022725 -99.75977755 898.89931212 -54.99023438 907.06201172 C-54.22807617 907.20380859 -53.46591797 907.34560547 -52.68066406 907.49169922 C-8.83466952 915.5222399 38.33989232 914.42260085 82.00976562 906.06201172 C82.92725586 905.89362793 83.84474609 905.72524414 84.79003906 905.55175781 C162.41672532 891.14011065 231.50893485 848.48729347 286.82226562 793.37451172 C288.16611328 792.03767334 288.16611328 792.03767334 289.53710938 790.67382812 C294.56809085 785.63064464 299.41053543 780.50151939 304.00976562 775.06201172 C304.55125244 774.427229 305.09273926 773.79244629 305.65063477 773.13842773 C314.66770532 762.50520322 323.05024108 751.50597465 331.00976562 740.06201172 C331.45271973 739.42585937 331.89567383 738.78970703 332.35205078 738.13427734 C339.75411789 727.43071199 346.48525835 716.31777722 353.00976562 705.06201172 C353.74864014 703.78825684 353.74864014 703.78825684 354.50244141 702.48876953 C366.87355487 680.96278721 376.65550007 658.43986079 385.07226562 635.12451172 C385.34416718 634.37264587 385.61606873 633.62078003 385.89620972 632.84613037 C389.31650704 623.33874393 392.32614656 613.8055528 395.00976562 604.06201172 C395.44169764 602.59720539 395.8772303 601.13344963 396.31835938 599.67138672 C401.77499324 581.22937545 404.76725211 562.22647896 407.69726562 543.24951172 C407.89964844 541.95327881 408.10203125 540.6570459 408.31054688 539.3215332 C411.42559261 518.56624305 412.3814813 498.11048112 412.32226562 477.12451172 C412.32002991 475.16786591 412.32002991 475.16786591 412.31774902 473.17169189 C412.27891412 454.28141122 411.82870891 435.76739768 409.00976562 417.06201172 C408.77700928 415.42401611 408.77700928 415.42401611 408.53955078 413.75292969 C406.70564323 400.92305455 404.44339572 388.18789999 401.56933594 375.54980469 C400.97402451 372.90311036 400.41086166 370.25045317 399.84570312 367.59716797 C387.67626725 312.21607813 363.29427435 257.93176428 330.00976562 212.06201172 C329.20224854 210.93424316 329.20224854 210.93424316 328.37841797 209.78369141 C320.7259033 199.10425876 312.7666576 188.85682852 304.00976562 179.06201172 C303.20796875 178.16095703 302.40617187 177.25990234 301.58007812 176.33154297 C300.10529386 174.68580621 298.62504566 173.04494503 297.13867188 171.40966797 C295.71888365 169.84399324 294.30996977 168.26838849 292.91210938 166.68310547 C284.91430036 157.6402107 276.4884487 148.79264277 267.26757812 140.97998047 C265.4072862 139.39969788 263.57640315 137.79639392 261.75195312 136.17529297 C240.7898067 117.62291074 217.4994319 101.61207549 193.00976562 88.06201172 C192.23697266 87.63114258 191.46417969 87.20027344 190.66796875 86.75634766 C109.96302182 42.10217853 13.54345552 29.13653818 -75.99023438 51.06201172 Z " fill="#008036" transform="translate(4470.990234375,-0.06201171875)"/>
<path d="M0 0 C3.04691454 0.01073029 6.09323976 0.00003068 9.14013672 -0.01269531 C50.45096292 -0.04360549 50.45096292 -0.04360549 65.55029297 12.26074219 C71.94096505 18.65141427 72.89129971 25.98523518 72.94972372 34.62503105 C72.94282979 35.84049093 72.93593585 37.0559508 72.92883301 38.3082428 C72.93336314 39.61531502 72.93789327 40.92238724 72.94256067 42.2690677 C72.95473417 45.88201755 72.94842446 49.49473175 72.93905568 53.10768116 C72.93224373 57.01040322 72.94280015 60.91308265 72.95133972 64.8157959 C72.96389476 71.57588061 72.96588287 78.33590137 72.96098328 85.09599495 C72.95416583 94.88621572 72.96671011 104.67634038 72.98449045 114.46654397 C73.01313179 130.37311819 73.03065001 146.27968203 73.0390625 162.1862793 C73.03956968 163.13780797 73.04007686 164.08933664 73.04059941 165.06969952 C73.04412527 171.82088028 73.04725429 178.5720612 73.05029297 185.32324219 C73.05376027 193.02303075 73.05741016 200.72281917 73.06152344 208.42260742 C73.06202605 209.37085017 73.06252867 210.31909291 73.06304651 211.29607029 C73.07180603 227.13579965 73.09227521 242.97549343 73.12100554 258.81519884 C73.1381403 268.57364842 73.14479067 278.33199701 73.13769948 288.09045964 C73.13350422 294.78527586 73.13992109 301.48002863 73.15449822 308.17483009 C73.16251618 312.03087928 73.16573553 315.88677089 73.15567589 319.74281883 C73.14482678 323.9367932 73.15733767 328.13039248 73.17175293 332.32435608 C73.16485899 333.5242009 73.15796506 334.72404573 73.15086222 335.96024948 C73.23528533 348.64741721 74.59455976 362.01218945 83.04248047 372.03027344 C89.12567498 378.01159627 97.15812134 379.35969223 105.42529297 379.69824219 C122.01287409 379.1832332 133.9613977 370.50996623 145.01904297 359.03027344 C149.92344488 353.70848462 149.92344488 353.70848462 150.92667389 346.72083855 C150.93808356 345.0199874 150.93808356 345.0199874 150.94972372 343.28477561 C150.93938282 341.41564717 150.93938282 341.41564717 150.92883301 339.50875854 C150.93212325 338.17186935 150.93673649 336.83498286 150.94256067 335.49810231 C150.95479532 331.82085769 150.94839578 328.14384296 150.93905568 324.46659851 C150.93226953 320.50186981 150.94278684 316.53718395 150.95133972 312.57246399 C150.96391805 305.69989116 150.96587504 298.82738124 150.96098328 291.95479965 C150.95418024 282.0072767 150.96668437 272.05984872 150.98449045 262.11234273 C151.01315655 245.95933942 151.03065698 229.80634635 151.0390625 213.65332031 C151.03956968 212.68625562 151.04007686 211.71919093 151.04059941 210.72282125 C151.04412568 203.86046169 151.04725468 196.99810198 151.05029297 190.13574219 C151.0537604 182.30729152 151.05741005 174.47884099 151.06152344 166.65039062 C151.06202605 165.68632199 151.06252867 164.72225335 151.06304651 163.72897051 C151.07179585 147.64417949 151.09224479 131.55942361 151.12100554 115.47465622 C151.13817416 105.55523347 151.14477541 95.63591026 151.13769948 85.71647461 C151.13351489 78.915131 151.13988693 72.11385005 151.15449822 65.31252103 C151.16254355 61.39028612 151.16568879 57.46820667 151.15567589 53.54597282 C151.14657469 49.95074999 151.15136613 46.35581538 151.16689032 42.76061703 C151.1715599 40.85346599 151.16152791 38.94629613 151.15086222 37.03916919 C151.21668616 27.09132322 152.3697402 18.36606339 159.48779297 11.01074219 C172.25722457 0.17607295 191.55441615 0.11170733 207.49169922 0.09277344 C208.49885483 0.08944504 209.50601044 0.08611664 210.54368591 0.08268738 C212.66217599 0.07765986 214.78067388 0.07527775 216.89916992 0.07543945 C220.08054214 0.07326424 223.26156047 0.0550941 226.44287109 0.03613281 C269.07010427 -0.08302523 269.07010427 -0.08302523 283.55029297 12.26074219 C291.60942513 20.47789655 290.84244632 31.60469212 290.81530762 42.39727783 C290.81888301 43.82393495 290.82333559 45.2505901 290.82858419 46.67724204 C290.84045904 50.58009281 290.84007194 54.48285934 290.83764911 58.38572383 C290.83722841 62.60294266 290.84834024 66.82013293 290.85810852 71.03733826 C290.87354848 78.34465936 290.88197029 85.6519612 290.88581848 92.95929718 C290.89158264 103.55596504 290.91019905 114.15258147 290.93225902 124.74922654 C290.96797326 141.98466472 290.99628145 159.22010583 291.01855469 176.45556641 C291.01988968 177.48659445 291.02122467 178.51762248 291.02260011 179.5798938 C291.03201848 186.89017636 291.04117737 194.20045924 291.05029297 201.51074219 C291.06067569 209.82666041 291.07119997 218.14257844 291.08203125 226.45849609 C291.08336199 227.48219635 291.08469273 228.5058966 291.0860638 229.56061807 C291.10859574 246.70899583 291.13884444 263.85735198 291.17442369 281.0057075 C291.19594295 291.5556943 291.2106682 302.10564744 291.21626246 312.65565494 C291.22055228 319.90981259 291.23189979 327.16393829 291.2484864 334.41807815 C291.25777049 338.58569794 291.26405212 342.75325818 291.26142311 346.9208889 C291.24755911 374.37403886 292.41591874 401.3988398 296.67529297 428.57324219 C297.09442141 431.29126339 297.5099902 434.00971813 297.91891479 436.72929382 C298.16851899 438.38538526 298.42396178 440.04061339 298.6867981 441.69465637 C299.78413816 448.90281075 300.70311864 455.82819325 296.97607422 462.38574219 C284.61048488 478.64733913 253.39347033 480.116173 235.11694336 482.62329102 C222.37302857 484.30181975 209.72553845 485.44765085 196.86279297 485.51074219 C195.26854492 485.54167969 195.26854492 485.54167969 193.64208984 485.57324219 C185.75879213 485.61214804 179.39430884 484.71359041 172.67919922 480.42871094 C161.91874763 469.47081987 160.48068751 449.11543508 158.50073242 434.68432617 C158.38947021 433.87552002 158.27820801 433.06671387 158.16357422 432.23339844 C158.06858643 431.51418213 157.97359863 430.79496582 157.87573242 430.05395508 C157.6195864 428.16573693 157.6195864 428.16573693 156.55029297 426.26074219 C156.03982422 426.96457031 155.52935547 427.66839844 155.00341797 428.39355469 C131.06432506 460.90657804 101.13643426 486.19613982 60.23510742 492.7956543 C54.08591922 493.57178916 47.92786937 493.50534152 41.73779297 493.51074219 C41.04532471 493.51141693 40.35285645 493.51209167 39.6394043 493.51278687 C11.49799192 493.46924824 -15.00587507 486.49444192 -35.44970703 466.26074219 C-59.73094651 440.8413196 -66.60372555 405.41118752 -66.59687805 371.33114624 C-66.6001832 369.83091374 -66.60391012 368.33068212 -66.60801953 366.83045161 C-66.61797208 362.72971734 -66.62174529 358.6289977 -66.62440884 354.52825308 C-66.62833157 350.097417 -66.63790782 345.6665923 -66.6466217 341.23576355 C-66.6663213 330.55237853 -66.67643986 319.86899265 -66.68534949 309.18559402 C-66.68973937 304.15086521 -66.69510401 299.11613744 -66.70033836 294.08140945 C-66.71733715 277.34292761 -66.73183397 260.6044464 -66.7390871 243.86595726 C-66.74099686 239.52912775 -66.74291722 235.19229824 -66.74487305 230.85546875 C-66.74535679 229.77762909 -66.74584053 228.69978942 -66.74633893 227.58928795 C-66.75464964 210.10657476 -66.78001012 192.62392975 -66.81245372 175.14124636 C-66.84550851 157.18273271 -66.86353406 139.22425376 -66.86673135 121.26570952 C-66.86889691 111.18611322 -66.87765343 101.10661665 -66.90319252 91.02705002 C-66.9248771 82.44932912 -66.93296063 73.87173222 -66.92322574 65.29398702 C-66.91867578 60.9182537 -66.92060799 56.54277636 -66.93998718 52.16707802 C-66.95758033 48.16012966 -66.95665273 44.15362478 -66.94108989 40.14667197 C-66.93870808 38.6986497 -66.94306715 37.25059702 -66.95491854 35.80262129 C-67.0263456 26.49830435 -66.43821506 20.38882394 -60.61767578 12.90527344 C-44.94771611 -1.59021194 -19.97421639 -0.08342645 0 0 Z " fill="#303235" transform="translate(572.44970703125,288.7392578125)"/>
<path d="M0 0 C3.18348697 -0.0021803 6.36662314 -0.02037085 9.55004883 -0.03930664 C53.02160345 -0.1607935 53.02160345 -0.1607935 66.52075195 12.18530273 C70.57216889 17.31774679 72.6429585 21.87631774 72.65383053 28.46045971 C72.65807157 29.56080207 72.66231262 30.66114443 72.66668218 31.7948305 C72.66610298 33.61549776 72.66610298 33.61549776 72.66551208 35.47294617 C72.66903893 36.75870649 72.67256578 38.04446681 72.6761995 39.36918956 C72.68590984 42.94582214 72.68945003 46.52243874 72.69204247 50.09908259 C72.69593314 53.95418541 72.70557115 57.80927407 72.71459961 61.66436768 C72.72955045 68.34976094 72.74109014 75.03515308 72.75054741 81.72055626 C72.76442303 91.40400937 72.78561309 101.0874364 72.80897594 110.77087078 C72.84691752 126.50381652 72.88187105 142.23676702 72.91357422 157.96972656 C72.91547471 158.91185797 72.9173752 159.85398938 72.91933329 160.82467023 C72.94611881 174.17079476 72.97000297 187.51692291 72.99271829 200.86305491 C72.99431559 201.80124484 72.99591289 202.73943476 72.99755859 203.70605469 C72.99915206 204.64309766 73.00074553 205.58014064 73.00238728 206.54557886 C73.02921109 222.20322197 73.0636378 237.86083757 73.10421234 253.51845104 C73.128915 263.16828651 73.14728202 272.81809247 73.15736795 282.46795449 C73.1647934 289.09320634 73.17937128 295.71841857 73.19943219 302.3436441 C73.21075543 306.15923929 73.2189621 309.97477079 73.21842384 313.79038429 C72.08415266 344.09622288 72.08415266 344.09622288 82.77075195 371.68530273 C89.9514686 378.21322696 98.78588697 379.56673859 108.20043945 379.46264648 C123.32081851 378.19965012 135.29133481 369.86868809 145.52075195 359.18530273 C146.03055428 358.67377273 146.54035661 358.16224273 147.06560749 357.63521183 C152.48640575 351.48028959 152.35480489 345.77161239 152.24659729 337.83840942 C152.24976756 336.48568893 152.25558807 335.13297251 152.2638163 333.78027332 C152.27881123 330.07756004 152.25667777 326.37586858 152.22839344 322.6732676 C152.20447453 318.6745318 152.21539168 314.67587375 152.222229 310.67709351 C152.22954083 303.75155765 152.21552851 296.82633126 152.18750191 289.9008522 C152.14740746 279.87697763 152.14522029 269.85336421 152.15315437 259.82942544 C152.16547703 243.55103471 152.15474855 227.27275234 152.12597656 210.99438477 C152.12426262 210.02061024 152.12254867 209.04683571 152.12078279 208.04355286 C152.11202697 203.10985053 152.10303148 198.17614866 152.09396362 193.2424469 C152.0759717 183.37395526 152.06020433 173.50546054 152.04589844 163.63696289 C152.04448208 162.66498416 152.04306571 161.69300543 152.04160643 160.6915728 C152.01862802 144.47558131 152.01536117 128.25963795 152.02529854 112.0436343 C152.03040397 102.04706755 152.01724541 92.0508367 151.98038601 82.05433486 C151.95618069 75.20303313 151.94949761 68.35185987 151.95649404 61.50051941 C151.95987193 57.54977662 151.95501232 53.59948881 151.92809868 49.6488266 C151.90354861 46.02772701 151.90224866 42.40736941 151.91891336 38.78623186 C151.92177246 36.86530648 151.89998743 34.94439239 151.87714487 33.0236007 C151.9473104 24.6835885 153.28655732 17.40080377 159.40268999 11.31167328 C172.57864444 0.35553308 191.44205843 0.0361651 207.71606445 0.01733398 C208.74778778 0.01400558 209.77951111 0.01067719 210.84249878 0.00724792 C213.01226359 0.00221968 215.18203601 -0.00016168 217.35180664 0 C220.6165895 -0.00217781 223.881029 -0.02035431 227.14575195 -0.03930664 C270.33488572 -0.15734507 270.33488572 -0.15734507 284.27075195 12.81420898 C291.34382985 20.41436721 290.81136568 28.77438972 290.7857666 38.68582153 C290.78934015 40.06792788 290.79379195 41.45003218 290.79904318 42.83213317 C290.81094301 46.62144419 290.81052775 50.41066862 290.80810809 54.19999385 C290.80768802 58.29197411 290.81879384 62.38392478 290.8285675 66.47589111 C290.84402256 73.57096632 290.85243278 80.66602165 290.85627747 87.76111221 C290.86204136 98.05966332 290.88065904 108.35816148 290.90271801 118.65668915 C290.93845452 135.41931076 290.96674921 152.18193539 290.98901367 168.94458008 C290.99034866 169.9477251 290.99168365 170.95087013 290.9930591 171.98441349 C291.0024728 179.093043 291.01162913 186.20167284 291.02075195 193.31030273 C291.03112651 201.37849963 291.04165479 209.44669629 291.05249023 217.51489258 C291.05382098 218.50771209 291.05515172 219.50053161 291.05652279 220.52343656 C291.07909943 237.18814462 291.10937254 253.85283065 291.14488268 270.51751602 C291.16634498 280.76178766 291.18111081 291.00602497 291.18672144 301.2503178 C291.19102993 308.3069198 291.20242368 315.3634893 291.21894538 322.42007317 C291.22817913 326.46715451 291.23453137 330.51417539 291.2318821 334.56126785 C291.22304316 351.43745358 291.537657 368.25224716 292.44445801 385.10641479 C292.48535217 385.87902272 292.52624632 386.65163064 292.5683797 387.44765092 C293.25450153 400.13688958 294.62629493 412.63873564 296.64575195 425.18530273 C301.25763035 454.51855944 301.25763035 454.51855944 297.83325195 461.74780273 C277.58888911 483.08645546 231.90148922 484.58948745 204.0637207 485.40405273 C201.82033602 485.44209541 199.57682668 485.47341961 197.33325195 485.49780273 C196.29313965 485.51560791 195.25302734 485.53341309 194.18139648 485.55175781 C186.12124283 485.54327619 178.00095592 484.56553574 171.85668945 478.79467773 C160.62743335 465.26703588 159.99551483 442.81634586 157.52075195 426.18530273 C156.8659082 427.04510742 156.21106445 427.90491211 155.53637695 428.79077148 C148.94819452 437.35601923 141.97710032 445.36884663 134.52075195 453.18530273 C133.88137695 453.88913086 133.24200195 454.59295898 132.58325195 455.31811523 C112.40949895 476.8427892 82.86573929 491.88431571 53.2578125 493.34643555 C22.66090898 493.72992803 -8.00517646 491.55525734 -31.35473633 469.31884766 C-32.74357809 467.95511676 -34.11190314 466.57058657 -35.47924805 465.18530273 C-36.21916992 464.4440918 -36.9590918 463.70288086 -37.72143555 462.93920898 C-66.28328612 432.65475653 -66.95929821 387.3675499 -66.8860811 348.33294833 C-66.88127814 344.00253078 -66.89392013 339.67215458 -66.90409851 335.3417511 C-66.92114658 326.89886635 -66.92215707 318.45605645 -66.91688561 310.01315898 C-66.91282129 303.1507525 -66.91431404 296.28836791 -66.91963387 289.42596245 C-66.92038229 288.44420832 -66.92113071 287.4624542 -66.92190181 286.45094995 C-66.92343345 284.45587361 -66.9249718 282.46079727 -66.92651678 280.46572094 C-66.94018756 261.83499099 -66.93483934 243.20430325 -66.92333157 224.5735743 C-66.91337416 207.54258046 -66.92639266 190.51169488 -66.95026576 173.48071773 C-66.97465448 155.94885432 -66.98426708 138.41704136 -66.97761303 120.88516134 C-66.97412426 111.0594822 -66.97633196 101.23388655 -66.99386406 91.40822029 C-67.00858185 83.05744538 -67.00922539 74.70681301 -66.99179315 66.3560409 C-66.98328311 62.09945387 -66.98113443 57.84312157 -66.9964447 53.58654785 C-67.01029831 49.68678067 -67.00552054 45.78748637 -66.98620547 41.88774651 C-66.98244769 40.48119328 -66.98536107 39.0746021 -66.99581712 37.66808272 C-67.05740973 28.7450659 -66.73283206 20.20928329 -60.72388166 13.11200958 C-45.48979496 -2.07469078 -19.70607134 -0.00150716 0 0 Z " fill="#323232" transform="translate(2431.479248046875,288.814697265625)"/>
<path d="M0 0 C15.07237925 13.36928555 26.44295639 29.89379386 35.97460938 47.52539062 C36.54260254 48.57509033 36.54260254 48.57509033 37.12207031 49.64599609 C51.49186541 76.77163273 58.75000601 107.43185262 63.22460938 137.58789062 C63.45156494 139.10793701 63.45156494 139.10793701 63.68310547 140.65869141 C66.68098912 162.52461112 67.35232119 184.4823674 67.28710938 206.52539062 C67.28437515 208.4556308 67.28437515 208.4556308 67.28158569 210.42486572 C67.13064625 273.91481432 58.36659818 344.50892313 16.97460938 395.52539062 C16.52359863 396.08323242 16.07258789 396.64107422 15.60791016 397.21582031 C-12.6630064 431.92978693 -52.32009501 450.59408808 -96.59710693 455.32043457 C-100.7583874 455.67166191 -104.91361295 455.72774208 -109.08789062 455.76367188 C-110.02895157 455.77346573 -110.97001251 455.78325958 -111.93959045 455.79335022 C-151.24434462 456.11841025 -151.24434462 456.11841025 -170.02539062 451.52539062 C-171.38011475 451.20393066 -171.38011475 451.20393066 -172.76220703 450.87597656 C-215.19821147 440.52867042 -249.23350542 415.37032324 -272.37451172 378.36816406 C-302.96687348 327.71732924 -310.50032324 267.2933453 -310.34344864 209.17929459 C-310.33780609 207.05608291 -310.33498697 204.93287922 -310.33236694 202.80966187 C-310.29550747 182.26100027 -309.98548207 161.90249984 -307.02539062 141.52539062 C-306.8484668 140.29079102 -306.67154297 139.05619141 -306.48925781 137.78417969 C-299.29758983 89.28078853 -283.97306974 41.30268824 -249.02539062 5.52539062 C-248.2390625 4.6771875 -247.45273438 3.82898438 -246.64257812 2.95507812 C-225.1900468 -19.63026013 -195.16091506 -32.49156566 -165.02539062 -38.47460938 C-163.80384277 -38.72017578 -163.80384277 -38.72017578 -162.55761719 -38.97070312 C-105.73733297 -49.74274291 -44.10961007 -38.18950839 0 0 Z M-150.79101562 80.63867188 C-171.56212106 108.22811844 -171.15217911 150.59166882 -171.22851562 183.73242188 C-171.231343 184.5808988 -171.23417038 185.42937572 -171.23708344 186.30356407 C-171.25196863 190.8102078 -171.26126049 195.31682052 -171.265625 199.82348633 C-171.2699712 203.46584298 -171.28372746 207.10795762 -171.30664062 210.75024414 C-173.57965643 278.3991141 -173.57965643 278.3991141 -146.88085938 337.77148438 C-138.72350816 345.48232795 -129.01521862 347.57534439 -118.02539062 347.52539062 C-107.8028591 346.45202481 -99.85088716 341.87983581 -92.99414062 334.27148438 C-78.90373233 315.51517333 -76.15672475 290.16407093 -74.02539062 267.52539062 C-73.92097656 266.45272949 -73.8165625 265.38006836 -73.70898438 264.27490234 C-70.1050402 225.18465339 -70.16629544 184.59277396 -74.02539062 145.52539062 C-74.17814453 143.95144531 -74.17814453 143.95144531 -74.33398438 142.34570312 C-76.86241718 117.56081861 -80.53011612 90.3500469 -100.53320312 73.40039062 C-116.1336748 61.66335865 -138.71475824 66.18456735 -150.79101562 80.63867188 Z " fill="#313234" transform="translate(1524.025390625,325.474609375)"/>
<path d="M0 0 C0.83756836 0.16628906 1.67513672 0.33257812 2.53808594 0.50390625 C32.50276458 6.70587117 58.7879442 19.94269939 81 41 C81.94617187 41.88171875 82.89234375 42.7634375 83.8671875 43.671875 C130.65721237 88.1499582 144.14329601 160.09588588 146.09436035 221.99359131 C147.3105794 270.41632194 144.80858927 318.30033085 131 365 C130.74025391 365.88123535 130.48050781 366.7624707 130.21289062 367.67041016 C122.05040063 394.58669305 108.43688592 419.77614295 90 441 C89.39671875 441.72445313 88.7934375 442.44890625 88.171875 443.1953125 C84.15297445 447.95644244 79.79391402 452.02990302 75 456 C74.28457031 456.61488281 73.56914062 457.22976563 72.83203125 457.86328125 C44.45982575 481.57807278 6.73492403 493.92070847 -30.02734375 494.23828125 C-30.96571579 494.2480751 -31.90408783 494.25786896 -32.87089539 494.26795959 C-85.12525502 494.70117284 -131.78285724 484.56961408 -170 447 C-182.92726024 434.10869876 -192.553303 419.11290652 -201 403 C-201.33064453 402.38205566 -201.66128906 401.76411133 -202.00195312 401.12744141 C-227.90041978 352.14947638 -233.202675 291.47066866 -232 237 C-231.97317139 235.61917236 -231.97317139 235.61917236 -231.94580078 234.21044922 C-230.68907078 176.17153881 -222.05273434 113.74398063 -188 65 C-187.59910156 64.42556152 -187.19820312 63.85112305 -186.78515625 63.25927734 C-160.61844102 26.52764634 -122.28700283 6.00178972 -78.44042969 -1.41064453 C-53.22650907 -5.17671652 -24.99586748 -5.02489144 0 0 Z M-71 118 C-108.17093917 167.22427719 -96.35112508 266.8203724 -88.55029297 324.31445312 C-85.56549599 344.25530249 -80.80924015 366.61470072 -63.921875 379.59765625 C-55.19177015 385.31220962 -44.55153829 387.29409149 -34.25 385.375 C-23.70393702 382.44446696 -15.8530439 375.64641171 -9.875 366.625 C0.25439158 348.54073296 2.69392211 326.82067271 4.6875 306.5625 C4.80697998 305.35053955 4.92645996 304.1385791 5.04956055 302.88989258 C6.76359238 284.08767085 7.20692563 265.24670541 7.1875 246.375 C7.18722809 245.36718475 7.18695618 244.35936951 7.18667603 243.3210144 C9.20402122 174.75549028 9.20402122 174.75549028 -17.87109375 115.04296875 C-25.75963052 107.50362275 -33.92495527 105.35587498 -44.59912109 105.45898438 C-55.04491756 105.91304871 -64.09307441 110.0914207 -71 118 Z " fill="#323232" transform="translate(3030,287)"/>
<path d="M0 0 C0.79486816 0.16628906 1.58973633 0.33257812 2.40869141 0.50390625 C25.8268711 5.59994374 46.93780349 15.18137821 65 31 C65.77859375 31.64582031 66.5571875 32.29164063 67.359375 32.95703125 C80.55406061 44.1270151 89.83674235 58.94445802 98 74 C98.3314502 74.60553711 98.66290039 75.21107422 99.00439453 75.83496094 C121.29946813 116.98336742 127.83128978 165.74841661 130.25 211.875 C130.29119965 212.65266724 130.33239929 213.43033447 130.37484741 214.23156738 C130.81196751 222.74891289 131.07940204 231.26441884 131.14453125 239.79296875 C131.15482361 240.53598236 131.16511597 241.27899597 131.17572021 242.04452515 C131.18505768 248.17597905 130.04139153 252.72522842 127 258 C126.53722656 258.84175781 126.07445313 259.68351562 125.59765625 260.55078125 C117.13444063 274.84927022 102.1603366 294.61322113 86 300 C83.64135487 300.09262287 81.28009443 300.12192505 78.91963196 300.12025452 C77.83160389 300.12153615 77.83160389 300.12153615 76.72159547 300.12284368 C74.28483104 300.12449417 71.84813506 300.11898414 69.41137695 300.11352539 C67.66711427 300.1132434 65.92285148 300.11340149 64.17858887 300.1139679 C59.43717184 300.11425541 54.69577999 300.10836612 49.95436883 300.10139394 C45.00157819 300.09515272 40.04878701 300.09455599 35.09599304 300.09336853 C25.71439763 300.09025749 16.33281384 300.08204714 6.95122355 300.07201904 C-3.72820594 300.06085088 -14.40763599 300.05534568 -25.08706987 300.05032361 C-47.05805307 300.03986435 -69.0290258 300.02226928 -91 300 C-90.54664589 304.15971691 -90.08281894 308.31820345 -89.6171875 312.4765625 C-89.42612427 314.23141968 -89.42612427 314.23141968 -89.23120117 316.02172852 C-87.01467685 335.66662475 -81.37413138 357.05190167 -65.50390625 370.15625 C-45.27448818 385.05217095 -21.53762838 386.89958217 2.64746094 383.38916016 C23.09629796 380.0064862 42.32658114 370.44639602 60.83203125 361.49609375 C65.91509624 359.0955834 70.3592499 357.83584976 75.91796875 359.61328125 C94.29547051 367.94001359 105.86427208 390.0949084 113.4375 407.875 C113.93262085 409.03334351 113.93262085 409.03334351 114.43774414 410.21508789 C119.12975252 421.66221375 120.82984455 432.30669214 116 444 C103.35073415 467.45863848 73.47479886 476.75099363 49.60107422 483.97460938 C39.19539974 486.93758109 28.63505834 489.05278151 18 491 C17.10120117 491.17789062 16.20240234 491.35578125 15.27636719 491.5390625 C-13.4666899 497.12152908 -47.26297622 496.48521823 -76 491 C-77.57370361 490.70198486 -77.57370361 490.70198486 -79.17919922 490.39794922 C-108.03744406 484.72655854 -135.83711507 474.53577573 -159 456 C-159.88292725 455.29423828 -159.88292725 455.29423828 -160.78369141 454.57421875 C-179.37877148 439.52743925 -193.02365672 421.1456025 -204 400 C-204.33451172 399.36755371 -204.66902344 398.73510742 -205.01367188 398.08349609 C-220.41233307 368.64443768 -227.48911073 334.79888772 -231 302 C-231.08720306 301.18716553 -231.17440613 300.37433105 -231.26425171 299.53686523 C-233.04955323 282.2732567 -233.36081893 265.09530437 -233.3125 247.75 C-233.31057546 246.37563081 -233.30873505 245.0012615 -233.30697632 243.62689209 C-233.26734842 222.29914384 -232.69876213 201.17409273 -230 180 C-229.91514343 179.32481323 -229.83028687 178.64962646 -229.74285889 177.95397949 C-224.17921434 134.01578458 -213.02399808 87.99702295 -183 54 C-181.73736328 52.53820312 -181.73736328 52.53820312 -180.44921875 51.046875 C-155.82288962 22.98305498 -121.35126955 6.66130517 -85 0 C-84.21254395 -0.15098145 -83.42508789 -0.30196289 -82.61376953 -0.45751953 C-56.38585173 -5.29598317 -26.1255188 -5.57051985 0 0 Z M-70.54296875 108.32421875 C-94.50272818 134.41712052 -97 183.42606336 -97 217 C-63.34 217 -29.68 217 5 217 C6.50654779 159.32268398 6.50654779 159.32268398 -16.09375 106.6328125 C-32.27222692 91.08096673 -54.98966211 93.72656843 -70.54296875 108.32421875 Z " fill="#323232" transform="translate(3720,287)"/>
<path d="M0 0 C2.57325051 -0.00217621 5.14606363 -0.02037539 7.71923828 -0.03930664 C16.29695051 -0.06875006 24.76531242 0.19956521 33.30126953 1.08374023 C34.45292099 1.20269402 34.45292099 1.20269402 35.62783813 1.3240509 C46.09055114 2.52367263 58.25290927 5.2308337 65.78564453 13.07202148 C71.15555855 19.84895625 72.27061727 26.02733577 72.22368431 34.47962379 C72.22648199 35.41155723 72.22927966 36.34349066 72.23216212 37.30366451 C72.23914106 40.43791118 72.23185314 43.57196331 72.22470093 46.70620728 C72.22683883 48.97147447 72.22986377 51.23674098 72.23370135 53.50200593 C72.24175738 59.73616804 72.23742693 65.97027032 72.23118258 72.20443225 C72.22712131 78.23457363 72.232454 84.26470144 72.23772035 90.29484003 C72.24825067 102.63344923 72.25007695 114.97204477 72.24753952 127.3106575 C72.24412274 144.94278041 72.25748328 162.57486902 72.27431399 180.20698272 C72.28099493 187.28328933 72.28713376 194.35959645 72.2932682 201.43590355 C72.2939522 202.22209997 72.29463619 203.0082964 72.29534092 203.81831695 C72.31152035 222.5335795 72.3223546 241.24884417 72.33154297 259.96411133 C72.331949 260.78300838 72.33235504 261.60190544 72.33277337 262.44561755 C72.34219938 281.54772906 72.3490667 300.64983939 72.35150146 319.75195312 C72.35160803 320.57328646 72.35171459 321.39461979 72.35182439 322.24084202 C72.35235754 326.38230888 72.35287229 330.52377574 72.35338576 334.6652426 C72.35348797 335.48373655 72.35359018 336.3022305 72.35369548 337.1455273 C72.35390104 338.79757692 72.3541036 340.44962655 72.35430315 342.10167617 C72.35768484 369.40437822 72.37460458 396.70704594 72.40640469 424.00973012 C72.41087796 427.86658764 72.41516783 431.72344533 72.4193306 435.58030319 C72.42015105 436.33934788 72.42097151 437.09839256 72.42181683 437.8804386 C72.43455945 450.09018136 72.43257279 462.29987952 72.42469615 474.50962459 C72.41700813 486.78436289 72.42342949 499.05902701 72.44433521 511.33375056 C72.4552388 517.98224288 72.45915878 524.63060869 72.44586372 531.27910995 C72.43381096 537.36750034 72.44016786 543.45558574 72.46105571 549.54394965 C72.46535726 551.74450503 72.46292526 553.94508625 72.45301454 556.14562352 C71.87392766 573.36778904 71.87392766 573.36778904 78.27878702 588.93078005 C82.47482462 592.93846443 87.79877928 594.23584995 93.42626953 594.14624023 C97.41116363 593.81620299 101.18345039 593.18732557 105.03564453 592.12280273 C110.69312206 590.62557131 115.74776749 590.18170132 121.16064453 592.62280273 C135.38426252 605.58209913 140.03260437 631.76188242 141.09741211 650.35522461 C141.51071567 662.05568202 141.7113468 671.0824224 133.84814453 680.37280273 C118.37184065 696.39387252 91.54362715 702.79116953 69.77636719 703.34643555 C68.23004555 703.36636544 66.68363446 703.38006084 65.13720703 703.38842773 C64.29958832 703.39412781 63.4619696 703.39982788 62.59896851 703.40570068 C60.82901249 703.41510802 59.05903929 703.4216676 57.2890625 703.42553711 C54.6404566 703.43514918 51.9926595 703.46617389 49.34423828 703.49780273 C18.65854776 703.68924404 -9.90841648 694.80174261 -32.33935547 673.24780273 C-64.54320816 639.71066951 -66.19567545 590.03214417 -66.16056824 546.30232239 C-66.16244096 544.05995813 -66.16474349 541.8175942 -66.16743356 539.57523078 C-66.17350003 533.46953812 -66.17342413 527.36385926 -66.17223918 521.25816429 C-66.17205503 515.33248751 -66.17655942 509.40681465 -66.18085207 503.48113983 C-66.19047744 489.88525665 -66.1933344 476.28937727 -66.19390913 462.69349108 C-66.19436989 452.19823969 -66.19643454 441.70298978 -66.19960976 431.20773888 C-66.20050736 428.17940496 -66.20139717 425.15107103 -66.20228463 422.12273711 C-66.20250568 421.3697841 -66.20272673 420.61683109 -66.20295448 419.84106133 C-66.20909969 398.69272832 -66.2130559 377.54439583 -66.2126112 356.3960619 C-66.21259562 355.60028178 -66.21258004 354.80450166 -66.21256399 353.984607 C-66.21248089 349.95180204 -66.21238185 345.91899708 -66.21227928 341.88619212 C-66.21225934 341.08533933 -66.21223939 340.28448655 -66.21221884 339.4593655 C-66.21217841 337.83985581 -66.21213661 336.22034613 -66.21209345 334.60083645 C-66.21147986 309.36913912 -66.21900645 284.13745521 -66.23266602 258.90576172 C-66.24802388 230.52568009 -66.2566326 202.14560727 -66.25570279 173.76552123 C-66.25562817 170.74064521 -66.25557946 167.71576919 -66.25554848 164.69089317 C-66.25553682 163.94614558 -66.25552517 163.20139798 -66.25551316 162.43408228 C-66.2554824 150.45326447 -66.26186556 138.47245833 -66.27048074 126.491644 C-66.27895342 114.46065546 -66.27995 102.429684 -66.27337142 90.39869414 C-66.27009985 83.88214227 -66.27007274 77.36563273 -66.27872467 70.84908485 C-66.28656134 64.88547291 -66.28518734 58.92193704 -66.27644054 52.95832702 C-66.27489941 50.79996303 -66.27674467 48.64159344 -66.28230061 46.48323605 C-66.28935027 43.55068659 -66.28407517 40.6184048 -66.27574444 37.68586445 C-66.28071262 36.84727364 -66.2856808 36.00868283 -66.29079953 35.14468017 C-66.23147142 25.27192428 -64.64308153 18.61229845 -57.63623047 11.41577148 C-42.52980261 -1.49705832 -18.72172175 -0.00176254 0 0 Z " fill="#323232" transform="translate(3318.02685546875,77.814697265625)"/>
<path d="M0 0 C0.82838379 0.00182281 1.65676758 0.00364563 2.51025391 0.00552368 C36.24912253 0.12994508 84.05107631 4.75809828 109.9375 29.1875 C118.44734147 38.30012191 120.06813467 47.18638427 119.83203125 59.265625 C118.77906577 81.7808868 106.65897556 110.17785058 90.421875 125.89453125 C87.53575978 128.02392114 85.32237343 129.45840283 81.609375 129.16113281 C73.73391993 127.64525038 66.43154153 124.1504753 59.08984375 121.03320312 C39.24062023 112.82184124 15.51657927 109.57669756 -5 117.5625 C-12.29548731 120.93568231 -17.82520167 124.81570684 -20.84375 132.4921875 C-22.84660577 141.09969859 -23.0641032 152.52407874 -18.5 160.3125 C-6.41474002 177.33671325 16.23171499 188.53635643 34.625 197.3125 C71.84831911 215.14486546 110.11338657 247.65935144 124.24316406 287.40283203 C137.90201449 328.88280409 134.72282593 379.11414712 115.5 418.3125 C97.40421055 453.11077191 67.3119696 478.10735329 30.08496094 490.08984375 C10.68042285 495.99661388 -8.78969786 497.88273555 -29 497.75 C-30.50403381 497.74493942 -30.50403381 497.74493942 -32.03845215 497.73977661 C-71.53194316 497.5480416 -119.30732719 490.95029684 -149.33984375 462.67578125 C-157.25303898 454.01848809 -160.12281036 444.89271267 -159.80859375 433.30859375 C-158.57438328 412.04022829 -144.79000457 390.2472816 -131.5 374.3125 C-131.02304688 373.69117188 -130.54609375 373.06984375 -130.0546875 372.4296875 C-125.70516384 366.93930517 -120.19567947 362.54439316 -113.5 360.3125 C-108.1062076 359.90844659 -104.82001024 360.73131811 -100.0625 363.25 C-99.17340942 363.7138208 -99.17340942 363.7138208 -98.26635742 364.18701172 C-93.55879476 366.66854612 -88.9396456 369.3101525 -84.3125 371.9375 C-65.29499287 382.70753818 -46.54015194 387.65564214 -24.828125 382.3515625 C-14.90090157 379.2522181 -7.45565591 375.24111743 -2.2578125 366.13671875 C2.13243963 356.88691167 1.83798501 346.11457601 -1.52734375 336.55078125 C-10.53791697 315.81560673 -34.83643303 305.66100259 -53.33789062 295.11865234 C-72.67222319 284.07515386 -90.80478087 272.09403788 -107.5 257.3125 C-108.48871094 256.44625 -109.47742187 255.58 -110.49609375 254.6875 C-115.91897751 249.86061839 -120.89870419 244.92436078 -125.5 239.3125 C-126.13421875 238.57773437 -126.7684375 237.84296875 -127.421875 237.0859375 C-145.0488346 216.11122201 -152.48196187 188.27038283 -152.73828125 161.1875 C-152.74812042 160.33125534 -152.75795959 159.47501068 -152.76809692 158.59281921 C-153.18956359 112.39469284 -144.10687258 72.80510201 -111.0703125 38.8125 C-92.1711966 20.99515168 -68.39657072 9.71902653 -43.25 4 C-42.27969849 3.77908691 -42.27969849 3.77908691 -41.28979492 3.55371094 C-27.58277628 0.68569822 -13.95373781 -0.06411272 0 0 Z " fill="#313233" transform="translate(1800.5,283.6875)"/>
<path d="M0 0 C8.24898742 7.61292728 13.45835895 16.18803803 14 27.5625 C13.44097168 50.35843263 0.0822268 76.25468807 -15.375 92.625 C-19.86994928 96.42841862 -24.54257123 98.2382682 -30.5 98.15234375 C-35.67122622 97.2038172 -40.10971901 94.49469561 -44.7109375 92.0546875 C-49.94183925 89.28565425 -55.3000045 86.82199049 -60.6875 84.375 C-61.58170654 83.96330566 -62.47591309 83.55161133 -63.3972168 83.12744141 C-84.07558531 73.73285278 -106.98285969 69.19131691 -129.22265625 76.37109375 C-146.73831009 83.33828691 -157.01643376 95.34146255 -165.125 111.9375 C-176.94808283 139.93098477 -178.59420338 171.63322412 -179.375 201.625 C-179.39836426 202.4598291 -179.42172852 203.2946582 -179.44580078 204.15478516 C-180.33444236 240.7981819 -179.51784051 283.0713013 -163.375 316.625 C-162.95863281 317.5325 -162.54226562 318.44 -162.11328125 319.375 C-154.95999867 333.80454424 -143.53542565 343.64090925 -128.30078125 348.8125 C-96.43554281 357.66159158 -66.84314191 343.65078252 -38.61547852 330.1003418 C-32.6413641 327.23303381 -27.99415726 325.70866715 -21.375 326.625 C-8.86782293 331.42644438 -1.47842969 345.47618749 3.70556641 357.03417969 C18.48885589 391.47799193 18.48885589 391.47799193 12.6875 407.328125 C2.94222277 428.39512137 -21.41812479 438.98542826 -42.06103516 446.61816406 C-52.02492534 450.1208837 -62.15630415 452.96872335 -72.4375 455.375 C-73.61965088 455.6548877 -73.61965088 455.6548877 -74.82568359 455.94042969 C-91.89524824 459.71559249 -108.80090532 461.15174118 -126.25 461 C-127.21023071 460.99534729 -128.17046143 460.99069458 -129.15979004 460.98590088 C-143.39335028 460.9051997 -157.39829281 460.56332967 -171.375 457.625 C-172.84090576 457.31900879 -172.84090576 457.31900879 -174.33642578 457.00683594 C-203.67425054 450.66776199 -229.40206609 439.10284413 -252.375 419.625 C-253.03371094 419.09003906 -253.69242188 418.55507813 -254.37109375 418.00390625 C-258.89307223 414.2876255 -262.62745339 410.10951184 -266.375 405.625 C-267.05304688 404.84640625 -267.73109375 404.0678125 -268.4296875 403.265625 C-309.69700819 354.80222348 -318.79599253 287.07212739 -320.375 225.625 C-320.39836426 224.74038086 -320.42172852 223.85576172 -320.44580078 222.94433594 C-322.09436482 148.93904937 -311.08331532 67.10641934 -258.11328125 11.36328125 C-253.81039736 7.06039736 -249.22592055 3.29071566 -244.375 -0.375 C-243.85599121 -0.77428711 -243.33698242 -1.17357422 -242.80224609 -1.58496094 C-216.77417676 -21.50844873 -185.63513998 -31.39838219 -153.375 -35.375 C-152.23200439 -35.51856934 -152.23200439 -35.51856934 -151.06591797 -35.66503906 C-101.27411764 -41.0589091 -38.92527243 -34.57950983 0 0 Z " fill="#313233" transform="translate(2298.375,320.375)"/>
<path d="M0 0 C1.62977783 -0.00855011 1.62977783 -0.00855011 3.29248047 -0.01727295 C5.58869462 -0.02669378 7.88492212 -0.03324529 10.18115234 -0.03710938 C13.64836059 -0.04676599 17.11496308 -0.07779789 20.58203125 -0.109375 C52.90875253 -0.26578312 52.90875253 -0.26578312 66.6875 9.203125 C72.44381735 14.92577968 74.90890167 20.80788737 74.93634033 28.85404968 C74.9255545 30.15956535 74.9255545 30.15956535 74.91455078 31.49145508 C74.91484283 32.41877441 74.91513489 33.34609375 74.91543579 34.30151367 C74.91404535 37.35865724 74.89849749 40.41555539 74.8828125 43.47265625 C74.87908136 45.5954322 74.87623486 47.71820987 74.87423706 49.84098816 C74.8666086 55.42232028 74.84696679 61.00354795 74.8248291 66.58483887 C74.80435376 72.28245633 74.79523173 77.98009071 74.78515625 83.67773438 C74.76372023 94.85291042 74.72959371 106.02800902 74.6875 117.203125 C75.8113208 117.18217773 76.9351416 117.16123047 78.09301758 117.13964844 C82.31049577 117.06658989 86.52791946 117.02108882 90.74584961 116.98339844 C92.56235193 116.96343157 94.37879121 116.93624813 96.19506836 116.90136719 C118.97937725 116.47514078 118.97937725 116.47514078 126.59985352 122.78710938 C138.1326595 134.43991414 137.03621682 153.41381888 137.00317383 168.48999023 C137.00001822 171.49825453 137.02351657 174.50552886 137.04882812 177.51367188 C137.15089776 208.24901513 137.15089776 208.24901513 127.3125 219.8203125 C120.88897921 225.7201767 113.43505278 226.64985866 105.15625 226.49609375 C103.84146667 226.48972649 103.84146667 226.48972649 102.50012207 226.48323059 C99.72892177 226.4665763 96.95847664 226.42895009 94.1875 226.390625 C92.29688558 226.37556099 90.40625964 226.3618756 88.515625 226.34960938 C83.90596361 226.31671639 79.29685938 226.26502755 74.6875 226.203125 C74.76952046 257.32082886 74.86158251 288.43848344 74.96755161 319.55611421 C74.98006963 323.23459347 74.99250253 326.91307301 75.00488281 330.59155273 C75.00734881 331.32383393 75.0098148 332.05611513 75.01235552 332.81058667 C75.0520175 344.64846847 75.08479378 356.48635974 75.11499982 368.32426902 C75.14617657 380.48216354 75.18481231 392.64001808 75.23029006 404.7978676 C75.25809182 412.29247203 75.28016062 419.78704742 75.29476251 427.28168938 C75.3066076 433.04049086 75.32885911 438.79921692 75.35488319 444.55797005 C75.36391743 446.91167021 75.36963944 449.2653859 75.37171364 451.61910248 C74.30588007 473.4369803 74.30588007 473.4369803 81.6875 493.203125 C86.95045072 497.30822656 92.04646509 498.46220308 98.6875 498.203125 C102.0750649 497.65973896 105.41939982 497.02667832 108.77832031 496.33520508 C115.13945003 495.04286429 121.21891625 493.94182182 127.4375 496.203125 C143.02105858 510.05517707 147.93012591 538.3019594 150.00390625 558.24609375 C150.41645552 567.68149481 147.65126393 575.31687402 141.5625 582.515625 C123.40122036 601.08699805 88.77548364 607.10781764 63.82421875 607.50390625 C61.46830499 607.52143489 59.11304902 607.52533042 56.75708008 607.51879883 C54.38771313 607.51564194 52.01960436 607.53919394 49.65039062 607.56445312 C21.272603 607.68210107 -5.67545059 599.17355772 -26.3125 579.203125 C-27.20582031 578.33945312 -28.09914063 577.47578125 -29.01953125 576.5859375 C-54.98967237 549.69826451 -62.5414411 508.01104532 -62.43275452 472.00335693 C-62.43360894 470.94363088 -62.43446337 469.88390482 -62.43534368 468.79206586 C-62.43697726 465.27770061 -62.4315122 461.76338421 -62.42602539 458.24902344 C-62.42574303 455.71526592 -62.4259022 453.18150832 -62.4264679 450.64775085 C-62.42669485 445.21149841 -62.42387751 439.77526141 -62.41823006 434.33901215 C-62.41007035 426.47930735 -62.40749527 418.61960834 -62.40624207 410.75989977 C-62.40405854 398.00513169 -62.39741749 385.25037005 -62.38793945 372.49560547 C-62.37874719 360.11246777 -62.37167525 347.72933183 -62.36743164 335.34619141 C-62.36716892 334.58168622 -62.36690619 333.81718104 -62.36663551 333.02950904 C-62.36533038 329.19385035 -62.3640667 325.35819165 -62.36282361 321.52253294 C-62.3524728 289.74939225 -62.33479876 257.97625963 -62.3125 226.203125 C-63.40224121 226.22125244 -64.49198242 226.23937988 -65.61474609 226.25805664 C-67.06347236 226.27271986 -68.51220317 226.28693782 -69.9609375 226.30078125 C-71.03492798 226.32041931 -71.03492798 226.32041931 -72.13061523 226.3404541 C-79.00848754 226.38966612 -84.67689869 225.18273738 -90.109375 220.73046875 C-101.53481136 208.76769751 -100.66851196 189.84680183 -100.62817383 174.41821289 C-100.62501682 171.90401644 -100.6485625 169.39100511 -100.67382812 166.87695312 C-100.72683398 153.35483755 -100.76450596 136.49430609 -92.3125 125.203125 C-86.85517041 119.72281718 -81.12389547 117.39087847 -73.34765625 117.0078125 C-69.66927083 117.07291667 -65.99088542 117.13802083 -62.3125 117.203125 C-62.19413788 116.0998436 -62.07577576 114.99656219 -61.9538269 113.85984802 C-60.81036263 103.31743622 -59.51658213 92.80568598 -58.0703125 82.30078125 C-57.96681362 81.54770628 -57.86331474 80.79463131 -57.75667953 80.01873589 C-57.21055196 76.05038093 -56.66099828 72.0825168 -56.10888672 68.11499023 C-55.65807712 64.8704379 -55.21441817 61.62502704 -54.77685547 58.37866211 C-54.24072585 54.40116094 -53.69255966 50.42548932 -53.135952 46.45080376 C-52.92857063 44.95606915 -52.72521108 43.46076999 -52.52624893 41.96489143 C-49.43421997 18.79516758 -49.43421997 18.79516758 -41.3125 11.203125 C-29.00090591 2.0501234 -14.89368499 0.06131121 0 0 Z " fill="#313234" transform="translate(1023.3125,173.796875)"/>
<path d="M0 0 C1.19375244 -0.00095673 2.38750488 -0.00191345 3.61743164 -0.00289917 C6.12158257 -0.00357453 8.62573532 -0.00176561 11.12988281 0.00244141 C14.92777499 0.00779878 18.72554893 0.00247428 22.5234375 -0.00390625 C24.97395859 -0.00324535 27.42447961 -0.00196396 29.875 0 C31.55057983 -0.00303635 31.55057983 -0.00303635 33.26000977 -0.00613403 C55.37005352 0.05850435 55.37005352 0.05850435 59.6875 3.5703125 C62.93638775 7.27043466 63.06785343 9.03825933 63.11108398 13.88232422 C63.12457382 15.09314667 63.13806366 16.30396912 63.15196228 17.55148315 C63.15702223 18.2031332 63.16208218 18.85478325 63.16729546 19.52618027 C63.18383322 21.5924201 63.20709961 23.65848725 63.23219299 25.72463989 C63.30244228 31.60279463 63.36158613 37.48103823 63.41430664 43.359375 C61.51220787 87.96153144 61.51220787 87.96153144 73.9375 129.1328125 C76.821475 129.35071969 76.821475 129.35071969 79.9375 128.1328125 C81.82315831 125.33855315 82.85610052 122.31080281 83.9375 119.1328125 C84.16151993 118.50170563 84.38553986 117.87059875 84.61634827 117.22036743 C86.50633816 111.77572668 87.85286087 106.37117942 88.953125 100.71875 C89.12968628 99.83821457 89.30624756 98.95767914 89.48815918 98.05046082 C89.86441719 96.17325738 90.23838911 94.29559447 90.61022949 92.41751099 C91.58935975 87.48226175 92.59209404 82.55181213 93.59375 77.62109375 C93.89258087 76.1482618 93.89258087 76.1482618 94.19744873 74.64567566 C95.82896029 66.62293451 97.49403844 58.60872359 99.26403809 50.61529541 C99.67167944 48.76704317 100.0689614 46.9165154 100.46582031 45.06591797 C103.28378435 32.49249903 106.78562517 19.23612119 117.5 11.1328125 C123.5067263 7.73169108 130.81966607 7.99454946 137.33984375 9.796875 C145.28292265 13.30341655 149.24760173 20.02577938 152.64624023 27.68237305 C155.29271785 34.75415754 156.75779923 42.1463756 158.375 49.5078125 C158.76647078 51.24806017 159.15873295 52.98812999 159.55175781 54.72802734 C162.13326873 66.21796846 164.55171279 77.73906234 166.90551758 89.27758789 C168.38503983 96.51743882 169.90620492 103.74363876 171.5625 110.9453125 C171.74458008 111.76918457 171.92666016 112.59305664 172.11425781 113.44189453 C173.23041902 118.18310151 174.79721121 122.23757041 177.14599609 126.51049805 C177.9375 128.1328125 177.9375 128.1328125 177.9375 130.1328125 C180.2475 130.1328125 182.5575 130.1328125 184.9375 130.1328125 C191.15940335 117.62583928 192.62960174 104.81955687 193.5625 91.0703125 C193.65788055 89.76326355 193.65788055 89.76326355 193.75518799 88.42980957 C194.64322047 76.1099107 195.05152304 63.81540844 195.171875 51.46484375 C195.17908443 50.79869993 195.18629387 50.13255611 195.19372177 49.44622612 C195.27284029 42.13424902 195.31340057 34.82400514 195.29541016 27.51147461 C195.30835183 25.05712585 195.32183561 22.60277987 195.3359375 20.1484375 C195.32246277 19.02206375 195.30898804 17.89569 195.29510498 16.73518372 C195.3780633 8.13049339 195.3780633 8.13049339 198.35009766 4.44433594 C205.79242832 -2.20446447 219.55288745 -0.01713486 229.03515625 0 C230.23128036 -0.00095673 231.42740448 -0.00191345 232.65977478 -0.00289917 C235.16812188 -0.00357449 237.67647079 -0.00176587 240.18481445 0.00244141 C243.99369275 0.00780362 247.8024534 0.00247172 251.61132812 -0.00390625 C254.06510442 -0.00324545 256.51888065 -0.00196424 258.97265625 0 C260.09487076 -0.00202423 261.21708527 -0.00404846 262.37330627 -0.00613403 C267.73568347 0.0095417 273.08220467 0.12772857 278.43530273 0.45361328 C279.37405746 0.51042267 280.31281219 0.56723206 281.28001404 0.62576294 C285.33693459 1.39982527 288.04605264 3.24136514 290.9375 6.1328125 C292.25925612 20.57136812 290.07759127 35.51574867 288.75 49.8828125 C288.63701569 51.12456238 288.52403137 52.36631226 288.40762329 53.64569092 C286.65574765 72.81102905 284.55297686 91.86999087 281.71337891 110.90332031 C280.94920599 116.02839514 280.21177627 121.15718512 279.4747467 126.28622437 C278.76962864 131.18526041 278.05795817 136.08332825 277.34439087 140.98114014 C276.99415848 143.38564457 276.64498945 145.79030417 276.29696655 148.19512939 C273.05353725 170.53100383 273.05353725 170.53100383 270.58496094 180.42333984 C269.93712738 183.13437183 269.45781397 185.82530037 269.0234375 188.578125 C267.6598264 197.1281072 265.90545405 205.60113531 264.16113281 214.08007812 C263.76007806 216.04151721 263.36462129 218.00410877 262.97460938 219.96777344 C262.40469686 222.83544361 261.81754599 225.69910753 261.2265625 228.5625 C261.05661774 229.43446014 260.88667297 230.30642029 260.71157837 231.20480347 C259.38386758 237.49548963 257.25068072 241.88050496 252.5625 246.4453125 C241.51972896 251.58591281 225.38093269 249.31899724 213.39794922 249.31811523 C210.07636725 249.32030336 206.75511737 249.33852448 203.43359375 249.35742188 C170.3096152 249.45176839 170.3096152 249.45176839 161.1875 241.6328125 C158.25920589 238.11885957 157.40906246 234.29972614 156.5 229.8828125 C156.24089844 228.62855469 155.98179688 227.37429688 155.71484375 226.08203125 C154.96006825 222.29322615 154.25946999 218.49517714 153.5625 214.6953125 C148.73567666 177.10493663 148.73567666 177.10493663 133.4375 143.8203125 C131.08519995 141.91807994 131.08519995 141.91807994 128.375 142.0078125 C122.63661999 144.65629558 120.46102588 150.78439711 118.27734375 156.33984375 C112.09610334 173.43930747 109.01766864 191.34388529 105.7409668 209.17041016 C100.38327749 238.31655355 100.38327749 238.31655355 95.9375 243.1328125 C83.2049534 251.36388526 66.12537833 249.42346443 51.50952148 249.33862305 C48.24520062 249.32028554 44.98116414 249.31811472 41.71679688 249.31835938 C10.69626421 249.26730988 10.69626421 249.26730988 4.9375 245.1328125 C1.3188653 241.2817164 0.08578099 237.99493798 -1.08984375 232.875 C-1.33455666 231.82818558 -1.33455666 231.82818558 -1.58421326 230.76022339 C-2.09369197 228.55446758 -2.58111942 226.34485783 -3.0625 224.1328125 C-3.21632141 223.43450317 -3.37014282 222.73619385 -3.52862549 222.01672363 C-4.60467864 217.10589056 -5.62270131 212.18415329 -6.625 207.2578125 C-6.77657562 206.51911926 -6.92815125 205.78042603 -7.08432007 205.01934814 C-9.08501559 195.26350292 -10.96869883 185.50521488 -12.45703125 175.65625 C-13.00388498 172.13878037 -13.00388498 172.13878037 -13.97167969 168.7902832 C-15.52483579 162.64391695 -16.26157809 156.36286399 -17.12109375 150.08984375 C-17.31244318 148.71663602 -17.50418817 147.34348336 -17.69630432 145.97038269 C-18.2003355 142.36063639 -18.69926798 138.75020398 -19.19702148 135.1395874 C-19.69423133 131.53862223 -20.19581487 127.93826727 -20.69726562 124.33789062 C-21.28228518 120.13677996 -21.86681074 115.93560578 -22.44799805 111.73396301 C-23.39772708 104.87235564 -24.36438199 98.01373486 -25.36442566 91.15927124 C-26.68975126 82.06071206 -27.81184387 72.97506817 -28.6875 63.8203125 C-28.81302246 62.54357666 -28.93854492 61.26684082 -29.06787109 59.95141602 C-29.83483025 51.99560783 -30.47773579 44.05027667 -30.8515625 36.06640625 C-30.99106806 33.21132469 -30.99106806 33.21132469 -31.55639648 30.76977539 C-32.42384948 26.25006489 -32.41287461 21.72341946 -32.5 17.1328125 C-32.54576172 16.14796875 -32.59152344 15.163125 -32.63867188 14.1484375 C-32.71187431 9.43802004 -32.62213757 6.92242459 -29.84765625 3.0078125 C-22.21225659 -2.02465623 -8.80988885 -0.01596455 0 0 Z " fill="#3E5542" transform="translate(4271.0625,491.8671875)"/>
<path d="M0 0 C1.70279366 -0.00143509 1.70279366 -0.00143509 3.43998718 -0.00289917 C5.83100439 -0.00357667 8.22202348 -0.00175251 10.61303711 0.00244141 C14.24011446 0.0077807 17.86706716 0.0024894 21.49414062 -0.00390625 C23.82942735 -0.0032451 26.164714 -0.00196318 28.5 0 C30.10371208 -0.00303635 30.10371208 -0.00303635 31.73982239 -0.00613403 C52.99495407 0.05884193 52.99495407 0.05884193 58.94921875 4.1328125 C61.46519908 7.906783 61.05230338 9.53850444 60.69921875 14.0078125 C60.64765625 14.67401611 60.59609375 15.34021973 60.54296875 16.02661133 C60.09257843 21.41274211 59.28910896 26.7200954 58.42578125 32.0546875 C57.07277281 40.7937912 56.78983054 49.55263666 56.63671875 58.3828125 C56.60690918 59.31794678 56.57709961 60.25308105 56.54638672 61.21655273 C56.49564952 67.28396573 57.27449068 72.15459892 60.94921875 77.1328125 C64.70969429 79.6397962 66.37142289 79.28221029 70.68359375 78.65625 C78.32343648 76.89118289 84.04174346 69.69404678 88.08837891 63.34570312 C96.8871044 48.5960952 101.66457245 32.84902793 105.08984375 16.12109375 C107.48245605 4.79442342 107.48245605 4.79442342 110.94921875 2.1328125 C120.06402295 -0.39321295 129.77382084 -0.16485963 139.15625 -0.1328125 C140.57582159 -0.13416458 141.99539273 -0.13610959 143.41496277 -0.13861084 C146.3638457 -0.14153184 149.3126061 -0.1373601 152.26147461 -0.12792969 C156.02137549 -0.11648402 159.78099233 -0.12314594 163.54088306 -0.13507462 C166.46213389 -0.14233083 169.38331823 -0.13998899 172.30457115 -0.13481903 C173.69071169 -0.13349564 175.07685849 -0.13508367 176.46299171 -0.13977814 C193.11472841 -0.18385875 193.11472841 -0.18385875 199.94921875 3.9453125 C204.22134711 10.75401707 202.2601126 19.38524486 200.82421875 26.9453125 C195.02621031 51.30236663 182.1945166 72.51222586 160.82421875 86.2578125 C145.37124508 95.33823978 128.48107427 101.19463068 110.6640625 103.48046875 C108.7327136 104.01381386 108.7327136 104.01381386 107.703125 106.19140625 C107.45433594 106.83207031 107.20554688 107.47273438 106.94921875 108.1328125 C110.42602962 111.35241032 113.922158 111.82940714 118.44921875 112.4453125 C147.23152802 117.04422496 173.48321144 129.7190683 190.94921875 153.6953125 C206.80052938 176.20863705 215.92961344 203.71394939 217.94921875 231.1328125 C218.01939209 231.96425781 218.08956543 232.79570312 218.16186523 233.65234375 C218.46752425 237.85159297 218.13095997 239.8103684 216.01171875 243.5703125 C208.0971577 250.19270032 195.90092421 248.42533433 186.10546875 248.3984375 C184.36869248 248.39978715 182.63191659 248.40173017 180.8951416 248.40423584 C177.2674599 248.40717299 173.63987716 248.402935 170.01220703 248.39355469 C165.38240937 248.38216102 160.75284367 248.38872806 156.1230545 248.40069962 C152.54036743 248.40795638 148.95773456 248.40561282 145.37504578 248.40044403 C143.66875684 248.39911807 141.96246283 248.40071794 140.25617981 248.40540314 C119.42058081 248.45007114 119.42058081 248.45007114 112.953125 244.1328125 C110.10484031 239.86871379 110.09555162 236.16537831 109.88671875 231.1328125 C108.03270086 203.89162157 101.53238756 168.42313429 79.9140625 149.3359375 C75.22802507 145.65717914 71.49117645 143.1328125 65.38671875 143.1328125 C61.73244604 143.84641357 61.73244604 143.84641357 59.57421875 147.0078125 C57.17845632 151.61504795 56.77854796 155.26733136 56.74609375 160.3515625 C56.73921539 161.07350296 56.73233704 161.79544342 56.72525024 162.53926086 C56.70793641 164.90382858 56.70177315 167.26818443 56.69921875 169.6328125 C56.697547 170.43915131 56.69587524 171.24549011 56.69415283 172.07626343 C56.69231019 186.93918705 57.85504401 201.40790003 59.94921875 216.1328125 C63.1432849 239.08584196 63.1432849 239.08584196 60.19921875 244.1328125 C51.18533571 249.67981745 38.97707484 248.43065274 28.7109375 248.3984375 C27.17543985 248.39978858 25.63994262 248.40173278 24.10444641 248.40423584 C20.9100023 248.40716186 17.71567108 248.40296863 14.52124023 248.39355469 C10.44173385 248.3821129 6.36248936 248.38876532 2.28299236 248.40069962 C-0.87841243 248.40794546 -4.03975563 248.40561863 -7.20116234 248.40044403 C-8.70535501 248.39911758 -10.20955343 248.40071973 -11.7137394 248.40540314 C-13.81622684 248.41051901 -15.91829548 248.40269018 -18.02075195 248.39160156 C-19.21255569 248.39001038 -20.40435944 248.38841919 -21.63227844 248.38677979 C-26.78221872 248.00418061 -30.80301498 247.07147303 -34.95117188 243.95092773 C-38.81321164 238.6791644 -37.71763141 231.28253642 -37.64453125 225.04296875 C-37.64400029 223.49765984 -37.64537147 221.95234929 -37.64849854 220.40704346 C-37.64931509 216.21370346 -37.61617225 212.02126983 -37.57463074 207.82815933 C-37.55068585 205.18478067 -37.53565727 202.5414986 -37.52355957 199.89804077 C-37.28502263 149.26064546 -35.33316117 98.65804133 -31.98828125 48.1328125 C-31.86555847 46.27555038 -31.86555847 46.27555038 -31.74035645 44.38076782 C-31.24126153 36.95889083 -30.68304048 29.54451035 -30.05078125 22.1328125 C-29.9853009 21.31651367 -29.91982056 20.50021484 -29.85235596 19.65917969 C-29.67471556 17.54265178 -29.46633702 15.43234931 -29.2421875 13.3203125 C-29.13205322 12.22074219 -29.02191895 11.12117187 -28.90844727 9.98828125 C-27.79684231 6.28736136 -25.95817758 4.61301888 -23.05078125 2.1328125 C-16.53457756 -1.12528934 -7.12121929 -0.01340663 0 0 Z " fill="#3E5542" transform="translate(4311.05078125,201.8671875)"/>
<path d="M0 0 C2.78390955 0.00536117 5.56765782 0.00002396 8.3515625 -0.00634766 C12.72905737 -0.01015095 17.10452778 0.02423871 21.48144531 0.09509277 C23.57080214 0.12703438 25.66042704 0.14006011 27.75 0.15087891 C28.87664062 0.18793945 30.00328125 0.225 31.1640625 0.26318359 C32.09992188 0.28525879 33.03578125 0.30733398 34 0.33007812 C38.21326986 1.53903283 41.07355452 3.69359836 43.7890625 7.13037109 C44.84500819 9.96670755 45.00970938 12.66078474 45.12890625 15.66943359 C45.18827866 16.49682037 45.24765106 17.32420715 45.30882263 18.17666626 C45.43215049 19.93478546 45.54153291 21.69393127 45.63787842 23.45373535 C45.78579089 26.07244888 45.98013998 28.68310193 46.19189453 31.29736328 C46.62468764 36.69717313 46.99412507 42.10010992 47.3515625 47.50537109 C47.44869537 48.94790756 47.44869537 48.94790756 47.54779053 50.41958618 C48.56990581 65.73444314 49.22327685 81.03371697 49.49829102 96.37988281 C49.51210312 97.10153122 49.52591522 97.82317963 49.54014587 98.56669617 C49.57519478 100.48196607 49.60357547 102.3973549 49.63134766 104.31274414 C49.74966204 107.17664815 49.96699841 109.93412947 50.2824707 112.77612305 C50.93047758 118.94119047 51.01803314 125.09191976 51.10546875 131.28662109 C51.12652176 132.55934875 51.14757477 133.83207642 51.16926575 135.14337158 C51.23704906 139.30561331 51.29515041 143.46796172 51.3515625 147.63037109 C51.36618908 148.69418755 51.36618908 148.69418755 51.38111115 149.77949524 C51.50282768 158.66552433 51.61072968 167.55166611 51.71027374 176.43796921 C51.76840371 181.5510851 51.83793255 186.66395691 51.91259766 191.77685547 C52.01065692 198.53921266 52.08000042 205.30130055 52.13009644 212.06420898 C52.15267176 214.60059585 52.18380858 217.1369215 52.22366333 219.6730957 C52.27700881 223.19558727 52.29880339 226.7169086 52.3125 230.23974609 C52.33512405 231.27633362 52.35774811 232.31292114 52.38105774 233.38092041 C52.36051074 240.36542498 52.36051074 240.36542498 49.50634766 244.18603516 C40.26251368 250.80040117 28.11647296 249.2838396 17.1640625 249.26318359 C16.01470215 249.26414032 14.8653418 249.26509705 13.68115234 249.26608276 C11.27115829 249.26675784 8.86116235 249.26495093 6.45117188 249.26074219 C2.79813486 249.2553844 -0.85477923 249.26071029 -4.5078125 249.26708984 C-6.86718777 249.26642894 -9.22656296 249.26514753 -11.5859375 249.26318359 C-13.195896 249.26621994 -13.195896 249.26621994 -14.83837891 249.26931763 C-20.29561166 249.25274815 -25.73842132 249.11492312 -31.1875 248.80957031 C-32.22213379 248.75276093 -33.25676758 248.69595154 -34.32275391 248.63742065 C-39.27395379 247.76818792 -43.19591454 245.13323431 -46.2109375 241.13037109 C-46.59125578 238.49770957 -46.72885838 236.28797304 -46.6809082 233.66015625 C-46.6830986 232.91106491 -46.685289 232.16197357 -46.68754578 231.3901825 C-46.68986455 228.89948961 -46.66348063 226.40997088 -46.63671875 223.91943359 C-46.63178074 222.15530774 -46.62849107 220.39117659 -46.62675476 218.62704468 C-46.61713183 213.94949273 -46.58272024 209.27241937 -46.54388428 204.59503174 C-46.51726791 200.89853425 -46.5081895 197.20210501 -46.50018501 193.5055275 C-46.45853706 174.71747759 -46.22943264 155.93598783 -45.75390625 137.15380859 C-45.73484034 136.36991383 -45.71577442 135.58601906 -45.69613075 134.7783699 C-45.49555528 126.73485678 -45.16354048 118.73846234 -44.43009949 110.72219849 C-44.12141133 107.07162736 -44.02162424 103.43281292 -43.96484375 99.77099609 C-43.93331866 98.24389037 -43.90148652 96.71679097 -43.86938477 95.18969727 C-43.85400665 94.40581635 -43.83862854 93.62193542 -43.82278442 92.81430054 C-43.45228701 74.54032305 -42.53024931 56.36108158 -41.2109375 38.13037109 C-41.1269873 36.91816895 -41.04303711 35.7059668 -40.95654297 34.45703125 C-40.71714292 31.01407435 -40.46667099 27.57214963 -40.2109375 24.13037109 C-40.14011963 23.12772217 -40.06930176 22.12507324 -39.99633789 21.09204102 C-38.88037065 6.89004387 -38.88037065 6.89004387 -34.8984375 2.69287109 C-25.66134833 -2.32826677 -10.25220726 -0.02346456 0 0 Z " fill="#3E5542" transform="translate(4649.2109375,491.86962890625)"/>
<path d="M0 0 C1.04782654 -0.0033284 2.09565308 -0.0066568 3.17523193 -0.01008606 C5.3839067 -0.01512827 7.59258902 -0.01749523 9.80126953 -0.01733398 C13.14759132 -0.01951542 16.49358036 -0.03768651 19.83984375 -0.05664062 C21.99739472 -0.05957627 24.15494724 -0.06155992 26.3125 -0.0625 C27.78967499 -0.07327827 27.78967499 -0.07327827 29.29669189 -0.08427429 C46.68139167 -0.02822598 46.68139167 -0.02822598 53.09765625 4.3203125 C55.31848288 7.78708468 55.85075842 10.7166664 56.109375 14.73046875 C56.17632568 15.50003906 56.24327637 16.26960938 56.31225586 17.0625 C56.53895235 19.76294004 56.72967446 22.46486398 56.921875 25.16796875 C57.09521855 27.33342454 57.26975801 29.49878483 57.4453125 31.6640625 C58.45397185 44.53037576 59.18400582 57.39106664 59.58032227 70.29101562 C59.7332381 75.09984695 59.96041686 79.87332645 60.40380859 84.66479492 C60.98267202 91.46994114 61.24452276 98.26851492 61.45703125 105.09375 C61.4783247 105.75569681 61.49961815 106.41764362 61.52155685 107.09964943 C61.6864605 112.2262922 61.8384887 117.35325188 61.984375 122.48046875 C62.0060033 123.2401873 62.02763161 123.99990585 62.04991531 124.78264618 C62.76060925 150.01674081 63.21093539 175.25341435 63.33029175 200.49740601 C63.34726866 204.02381092 63.37558052 207.54984086 63.41360474 211.07608032 C63.45741832 215.2399813 63.47613371 219.40324869 63.47520828 223.56737328 C63.47867669 225.10175023 63.49053623 226.6361344 63.51136398 228.17037392 C63.53815557 230.27268555 63.53367189 232.37270349 63.52124023 234.47509766 C63.52631088 235.65327057 63.53138153 236.83144348 63.53660583 238.0453186 C62.7238242 242.17400803 61.21834306 243.61860659 57.921875 246.16796875 C49.37519128 249.21808863 39.36526248 248.46315793 30.41015625 248.43359375 C28.94671057 248.43494536 27.48326533 248.43688999 26.01982117 248.43939209 C22.97500266 248.44231727 19.93030263 248.43812879 16.88549805 248.42871094 C13.00572243 248.41728723 9.12622276 248.42391082 5.2464571 248.43585587 C2.2325181 248.44311935 -0.78135658 248.44076656 -3.79529762 248.43560028 C-5.22526903 248.43427775 -6.6552465 248.4358618 -8.0852108 248.44055939 C-15.6806787 248.46005485 -22.77992946 248.40884073 -30.078125 246.16796875 C-34.10745039 242.13864336 -35.19150869 239.41117721 -35.21690369 233.78884888 C-35.21395042 232.65586868 -35.21395042 232.65586868 -35.2109375 231.5 C-35.21239273 230.70036835 -35.21384796 229.90073669 -35.21534729 229.07687378 C-35.21764018 226.37802796 -35.21116603 223.67930277 -35.203125 220.98046875 C-35.20124176 220.03007721 -35.19935852 219.07968567 -35.19741821 218.10049438 C-35.04906016 153.10422749 -33.70056094 87.73686929 -28.38647461 22.93188477 C-28.19032034 20.53749808 -28.00501637 18.14217922 -27.83422852 15.74584961 C-27.75873779 14.75593018 -27.68324707 13.76601074 -27.60546875 12.74609375 C-27.54609131 11.92141602 -27.48671387 11.09673828 -27.42553711 10.24707031 C-26.75516949 6.23522867 -24.50334785 4.18598507 -21.328125 1.91796875 C-14.53988548 -0.34477776 -7.07027168 0.00792438 0 0 Z " fill="#3E5542" transform="translate(4606.078125,201.83203125)"/>
</svg>
