<?xml version="1.0" encoding="UTF-8"?>
<!DOCTYPE svg PUBLIC "-//W3C//DTD SVG 1.1//EN" "http://www.w3.org/Graphics/SVG/1.1/DTD/svg11.dtd">
<!-- Creator: CorelDRAW X7 -->
<svg xmlns="http://www.w3.org/2000/svg" xml:space="preserve" width="7800" height="1900" version="1.1" style="shape-rendering:geometricPrecision; text-rendering:geometricPrecision; image-rendering:optimizeQuality; fill-rule:evenodd; clip-rule:evenodd"
viewBox="350 2550 7800 1900"
 xmlns:xlink="http://www.w3.org/1999/xlink">
 <defs>
  <style type="text/css">
   <![CDATA[
    .fil4 {fill:#00ADEE;fill-rule:nonzero}
    .fil0 {fill:#204253;fill-rule:nonzero}
    .fil1 {fill:#37B3A1;fill-rule:nonzero}
    .fil2 {fill:#92DA22;fill-rule:nonzero}
    .fil3 {fill:white;fill-rule:nonzero}
   ]]>
  </style>
 </defs>
 <g id="Layer_x0020_1">
  <metadata id="CorelCorpID_0Corel-Layer"/>
  <g id="_1112265920">
   <path class="fil0" d="M2573 3881c-46,-23 -82,-56 -107,-98 -25,-42 -38,-90 -38,-145l0 -52c0,-6 2,-11 5,-14 4,-4 8,-5 14,-5l85 0c6,0 11,1 14,5 4,3 5,8 5,14l0 52c0,52 17,93 50,124 34,31 78,47 132,47 56,0 100,-16 133,-47 34,-31 50,-72 50,-124l0 -611c0,-6 2,-10 6,-14 3,-3 8,-5 14,-5l83 0c6,0 11,2 14,5 3,4 5,8 5,14l0 611c0,55 -12,103 -38,145 -25,42 -61,75 -107,98 -46,23 -99,34 -160,34 -60,0 -114,-11 -160,-34z"/>
   <path class="fil0" d="M3505 3270c39,18 69,44 90,77 21,33 32,70 32,112l0 427c0,6 -2,10 -6,14 -3,3 -8,5 -14,5l-84 0c-6,0 -11,-2 -14,-5 -4,-4 -5,-8 -5,-14l0 -36c0,-3 -1,-4 -3,-5 -2,-1 -3,-1 -5,1 -24,22 -52,39 -85,51 -33,12 -69,18 -107,18 -63,0 -114,-16 -154,-48 -40,-32 -59,-80 -59,-145 0,-67 23,-119 69,-157 46,-38 111,-57 195,-57l142 0c4,0 7,-2 7,-7l0 -33c0,-38 -11,-67 -33,-88 -22,-21 -55,-31 -99,-31 -35,0 -64,6 -86,19 -21,13 -36,31 -43,54 -3,11 -10,16 -21,15l-93 -11c-6,-1 -10,-3 -14,-6 -3,-3 -4,-7 -4,-11 8,-49 36,-89 83,-120 48,-31 106,-46 175,-46 52,0 98,9 136,27l0 0zm-52 505l0 0c34,-23 51,-54 51,-90l0 -75c0,-4 -3,-6 -7,-6l-119 0c-50,0 -91,10 -120,29 -30,20 -45,47 -45,82 0,32 11,56 34,72 22,16 52,24 87,24 46,0 85,-12 119,-36z"/>
   <path class="fil0" d="M3849 3890l-205 -615c0,-2 -1,-5 -1,-8 0,-10 6,-14 17,-14l95 0c5,0 9,1 14,4 4,3 7,7 7,12l140 459c1,4 2,5 4,5 2,-1 3,-3 4,-6l138 -458c1,-5 4,-9 8,-12 4,-3 9,-4 14,-4l95 1c7,0 11,2 14,6 2,4 3,9 1,16l-204 614c-3,10 -10,15 -21,15l-98 0c-11,0 -18,-5 -22,-15l0 0z"/>
   <path class="fil0" d="M4644 3729c4,-7 9,-11 14,-11 4,0 8,1 11,4l53 32c7,4 10,10 10,16l-2 11c-23,42 -56,74 -98,98 -43,24 -92,36 -148,36 -61,0 -112,-13 -154,-40 -42,-27 -74,-66 -95,-116 -21,-52 -32,-113 -32,-183 0,-63 5,-110 14,-143 16,-59 46,-105 92,-139 47,-34 103,-51 168,-51 81,0 143,21 186,63 43,42 71,104 83,184 5,31 8,70 9,115 0,13 -6,19 -19,19l-405 0c-4,0 -6,2 -6,7 2,32 5,55 9,69 9,34 28,61 56,81 28,19 63,29 105,29 69,-1 119,-28 149,-81l0 0zm-258 -353l0 0c-24,18 -40,42 -48,74 -6,19 -10,43 -12,72 0,4 2,6 7,6l290 0c5,0 7,-2 7,-6 -2,-28 -5,-49 -8,-63 -8,-33 -25,-60 -51,-80 -25,-20 -56,-30 -94,-30 -37,0 -68,9 -91,27z"/>
   <path class="fil0" d="M5234 3013c4,-3 9,-5 15,-5l84 0c6,0 11,2 14,5 4,4 5,8 5,14l0 859c0,6 -1,10 -5,14 -3,3 -8,5 -14,5l-84 0c-6,0 -11,-2 -15,-5 -3,-4 -5,-8 -5,-14l0 -34c0,-2 0,-4 -2,-5 -2,-1 -4,0 -5,2 -19,21 -41,37 -66,49 -25,11 -53,17 -83,17 -61,0 -112,-15 -153,-45 -41,-31 -70,-74 -89,-129 -15,-43 -23,-97 -23,-164 0,-62 6,-114 19,-155 18,-56 48,-100 89,-132 42,-32 94,-47 157,-47 30,0 58,5 83,16 25,11 47,28 66,49 1,2 3,2 5,2 2,-1 2,-2 2,-5l0 -278c0,-6 2,-10 5,-14l0 0zm-6 565l0 0c0,-70 -11,-125 -33,-164 -25,-43 -61,-65 -109,-65 -50,0 -88,20 -114,61 -27,43 -41,99 -41,169 0,66 11,119 32,159 25,47 66,71 123,71 49,0 86,-23 111,-69 21,-38 31,-92 31,-162z"/>
   <path class="fil0" d="M5697 3892l-283 -866c-1,-2 -1,-4 -1,-6 0,-8 4,-12 14,-12l41 0c8,0 14,4 16,13l249 779c1,2 2,2 4,2 1,0 3,0 4,-2l251 -779c2,-9 8,-13 16,-13l39 0c5,0 9,2 11,5 3,3 3,7 2,13l-285 866c-2,9 -8,13 -16,13l-45 0c-9,0 -14,-4 -17,-13z"/>
   <path class="fil0" d="M6117 3114c-11,-11 -16,-24 -16,-41 0,-16 5,-29 16,-39 11,-11 25,-16 43,-16 17,0 31,5 42,16 11,10 16,23 16,39 0,17 -5,30 -16,41 -11,10 -25,16 -42,16 -18,0 -32,-6 -43,-16zm14 786l0 0c-3,-3 -5,-6 -5,-10l0 -615c0,-5 2,-8 5,-11 3,-3 6,-5 11,-5l37 0c4,0 8,2 11,5 3,3 4,6 4,11l0 615c0,4 -1,7 -4,10 -3,3 -7,5 -11,5l-37 0c-5,0 -8,-2 -11,-5z"/>
   <path class="fil0" d="M6682 3307c40,39 59,91 59,157l0 426c0,4 -1,7 -4,10 -3,3 -7,5 -11,5l-37 0c-5,0 -8,-2 -11,-5 -3,-3 -5,-6 -5,-10l0 -56c0,-1 0,-3 -2,-3 -1,-1 -2,-1 -4,1 -22,27 -52,48 -88,62 -37,14 -76,21 -118,21 -60,0 -110,-15 -150,-44 -40,-30 -60,-75 -60,-138 0,-63 23,-113 70,-150 47,-36 111,-55 193,-55l154 0c4,0 5,-1 5,-5l0 -58c0,-48 -13,-86 -39,-114 -27,-28 -68,-42 -125,-42 -43,0 -79,9 -107,26 -28,18 -46,42 -53,72 -2,10 -8,14 -18,12l-39 -5c-12,-2 -16,-6 -15,-14 9,-45 34,-82 76,-109 42,-28 94,-42 158,-42 75,0 132,19 171,58l0 0zm-68 510l0 0c40,-27 59,-64 59,-111l0 -116c0,-4 -1,-5 -5,-5l-146 0c-61,0 -111,12 -148,38 -37,26 -56,61 -56,106 0,42 15,74 44,95 29,22 66,32 111,32 54,0 101,-13 141,-39l0 0z"/>
   <path class="fil0" d="M7220 3264c3,-3 6,-5 11,-5l37 0c4,0 8,2 11,5 3,3 4,6 4,11l0 616c0,96 -29,166 -86,210 -58,44 -139,63 -244,59 -11,-1 -16,-7 -16,-17l2 -32c0,-10 5,-15 15,-14 90,3 157,-13 199,-47 41,-33 62,-87 62,-160l0 -64c0,-3 0,-5 -2,-5 -1,0 -2,0 -4,2 -39,59 -97,88 -176,88 -55,0 -104,-15 -146,-45 -42,-30 -69,-72 -83,-125 -9,-35 -14,-88 -14,-158 0,-75 5,-130 15,-165 14,-50 41,-91 81,-122 40,-31 88,-47 145,-47 78,0 138,29 178,87 1,2 2,2 4,1 1,-1 2,-2 2,-4l0 -58c0,-5 2,-8 5,-11l0 0zm-6 405l0 0c1,-19 1,-48 1,-87 0,-39 0,-68 -1,-87 -1,-19 -3,-36 -5,-50 -7,-39 -25,-72 -55,-97 -29,-26 -66,-39 -110,-39 -45,0 -82,13 -112,39 -31,25 -52,58 -63,97 -7,26 -11,71 -11,136 0,63 4,108 11,136 10,39 30,71 61,97 31,26 69,38 114,38 46,0 83,-12 112,-38 28,-26 46,-58 53,-97 2,-13 4,-29 5,-48z"/>
   <path class="fil0" d="M7769 3264c3,-3 7,-5 11,-5l38 0c4,0 7,2 10,5 3,3 5,6 5,11l0 616c0,96 -29,166 -87,210 -57,44 -139,63 -244,59 -10,-1 -15,-7 -15,-17l1 -32c0,-10 5,-15 16,-14 90,3 156,-13 198,-47 42,-33 63,-87 63,-160l0 -64c0,-3 -1,-5 -2,-5 -1,0 -3,0 -4,2 -39,59 -97,88 -176,88 -56,0 -104,-15 -146,-45 -42,-30 -70,-72 -83,-125 -10,-35 -14,-88 -14,-158 0,-75 5,-130 15,-165 14,-50 41,-91 81,-122 40,-31 88,-47 144,-47 79,0 138,29 179,87 0,2 2,2 3,1 2,-1 3,-2 3,-4l0 -58c0,-5 1,-8 4,-11l0 0zm-5 405l0 0c1,-19 1,-48 1,-87 0,-39 0,-68 -1,-87 -1,-19 -3,-36 -5,-50 -7,-39 -25,-72 -55,-97 -29,-26 -66,-39 -111,-39 -44,0 -81,13 -112,39 -30,25 -51,58 -62,97 -8,26 -11,71 -11,136 0,63 3,108 11,136 9,39 30,71 61,97 31,26 69,38 113,38 46,0 84,-12 112,-38 29,-26 47,-58 54,-97 2,-13 4,-29 5,-48z"/>
   <path class="fil0" d="M7891 3114c-12,-11 -17,-24 -17,-41 0,-16 5,-29 17,-39 11,-11 25,-16 42,-16 17,0 31,5 42,16 11,10 17,23 17,39 0,17 -6,30 -17,41 -11,10 -25,16 -42,16 -17,0 -31,-6 -42,-16zm13 786l0 0c-3,-3 -4,-6 -4,-10l0 -615c0,-5 1,-8 4,-11 3,-3 7,-5 11,-5l37 0c4,0 8,2 11,5 3,3 4,6 4,11l0 615c0,4 -1,7 -4,10 -3,3 -7,5 -11,5l-37 0c-4,0 -8,-2 -11,-5z"/>
  </g>
  <g id="_1112291008">
   <path class="fil1" d="M2116 3501c0,451 -366,817 -817,817 -450,0 -816,-366 -816,-817 0,-450 366,-816 816,-816 451,0 817,366 817,816z"/>
   <path class="fil2" d="M2022 3483c0,390 -315,705 -705,705 -389,0 -705,-315 -705,-705 0,-389 316,-705 705,-705 390,0 705,316 705,705z"/>
   <g>
    <path class="fil3" d="M1987 3397c0,323 -262,584 -584,584 -322,0 -583,-261 -583,-584 0,-322 261,-583 583,-583 322,0 584,261 584,583z"/>
    <g>
     <path class="fil4" d="M1741 3142l14 -98 -97 14 -217 216 -413 -86 -64 64 180 89 -33 33c-10,11 -10,29 0,40 11,10 29,10 40,0l46 -46 102 50 -181 181 -110 -7 -35 34 134 66 66 135 34 -34 -7 -111 182 -181 52 106 -45 45c-10,11 -10,29 0,40 11,10 29,10 40,0l32 -32 88 176 64 -64 -88 -414 216 -216 0 0z"/>
    </g>
   </g>
  </g>
 </g>
</svg>
